<?xml version="1.0" encoding="UTF-8" standalone="no"?>
<!-- Created with Inkscape (http://www.inkscape.org/) -->

<svg
   width="98.471039mm"
   height="25.459538mm"
   viewBox="0 0 98.471039 25.459538"
   version="1.1"
   id="svg5"
   sodipodi:docname="sheet12-exercise1-a-solution.svg"
   inkscape:version="1.1.1 (1:1.1+202109281949+c3084ef5ed)"
   xmlns:inkscape="http://www.inkscape.org/namespaces/inkscape"
   xmlns:sodipodi="http://sodipodi.sourceforge.net/DTD/sodipodi-0.dtd"
   xmlns:xlink="http://www.w3.org/1999/xlink"
   xmlns="http://www.w3.org/2000/svg"
   xmlns:svg="http://www.w3.org/2000/svg">
  <sodipodi:namedview
     id="namedview7"
     pagecolor="#ffffff"
     bordercolor="#666666"
     borderopacity="1.0"
     inkscape:pageshadow="2"
     inkscape:pageopacity="0.0"
     inkscape:pagecheckerboard="0"
     inkscape:document-units="mm"
     showgrid="false"
     inkscape:zoom="1.0633188"
     inkscape:cx="218.65503"
     inkscape:cy="229.94045"
     inkscape:window-width="1848"
     inkscape:window-height="1016"
     inkscape:window-x="1992"
     inkscape:window-y="27"
     inkscape:window-maximized="1"
     inkscape:current-layer="layer1"
     fit-margin-top="0"
     fit-margin-left="0"
     fit-margin-right="0"
     fit-margin-bottom="0" />
  <defs
     id="defs2">
    <g
       id="g6314">
      <symbol
         overflow="visible"
         id="symbol1131">
        <path
           style="stroke:none"
           d=""
           id="path8745" />
      </symbol>
      <symbol
         overflow="visible"
         id="symbol3092">
        <path
           style="stroke:none"
           d="m 6.984375,23.421875 c 0,-0.04687 -0.03125,-0.0625 -0.046875,-0.09375 -0.375,-0.375 -1.03125,-1.03125 -1.703125,-2.109375 C 3.625,18.640625 2.90625,15.40625 2.90625,11.5625 c 0,-2.6875 0.359375,-6.140625 2,-9.109375 C 5.6875,1.03125 6.515625,0.21875 6.953125,-0.21875 c 0.03125,-0.03125 0.03125,-0.046875 0.03125,-0.078125 0,-0.109375 -0.078125,-0.109375 -0.21875,-0.109375 -0.140625,0 -0.15625,0 -0.3125,0.15625 -3.328125,3.046875 -4.375,7.609375 -4.375,11.796875 0,3.921875 0.890625,7.875 3.421875,10.859375 0.203125,0.21875 0.578125,0.625 0.984375,0.984375 0.125,0.125 0.140625,0.125 0.28125,0.125 0.140625,0 0.21875,0 0.21875,-0.09375 z m 0,0"
           id="path1037" />
      </symbol>
      <symbol
         overflow="visible"
         id="symbol6078">
        <path
           style="stroke:none"
           d="M 5.25,11.5625 C 5.25,7.640625 4.359375,3.703125 1.828125,0.71875 1.625,0.484375 1.25,0.078125 0.84375,-0.28125 c -0.125,-0.125 -0.140625,-0.125 -0.28125,-0.125 -0.125,0 -0.21875,0 -0.21875,0.109375 0,0.03125 0.046875,0.078125 0.0625,0.09375 0.34375,0.359375 1.015625,1.03125 1.6875,2.109375 1.609375,2.5625 2.328125,5.8125 2.328125,9.640625 0,2.6875 -0.359375,6.140625 -2,9.125 -0.78125,1.40625 -1.609375,2.234375 -2.03125,2.65625 -0.015625,0.03125 -0.046875,0.0625 -0.046875,0.09375 0,0.09375 0.09375,0.09375 0.21875,0.09375 0.140625,0 0.15625,0 0.3125,-0.15625 C 4.203125,20.328125 5.25,15.765625 5.25,11.5625 Z m 0,0"
           id="path1322" />
      </symbol>
      <symbol
         overflow="visible"
         id="symbol2950">
        <path
           style="stroke:none"
           d=""
           id="path2704" />
      </symbol>
      <symbol
         overflow="visible"
         id="symbol9210">
        <path
           style="stroke:none"
           d="m 1.3125,-3.265625 v -0.25 c 0,-2.515625 1.234375,-2.875 1.75,-2.875 0.234375,0 0.65625,0.0625 0.875,0.40625 -0.15625,0 -0.546875,0 -0.546875,0.4375 0,0.3125 0.234375,0.46875 0.453125,0.46875 0.15625,0 0.46875,-0.09375 0.46875,-0.484375 0,-0.59375 -0.4375,-1.078125 -1.265625,-1.078125 -1.28125,0 -2.625,1.28125 -2.625,3.484375 0,2.671875 1.15625,3.375 2.078125,3.375 1.109375,0 2.0625,-0.9375 2.0625,-2.25 0,-1.265625 -0.890625,-2.21875 -2,-2.21875 -0.671875,0 -1.046875,0.5 -1.25,0.984375 z M 2.5,-0.0625 c -0.625,0 -0.921875,-0.59375 -0.984375,-0.75 -0.1875,-0.46875 -0.1875,-1.265625 -0.1875,-1.4375 0,-0.78125 0.328125,-1.78125 1.21875,-1.78125 0.171875,0 0.625,0 0.9375,0.625 0.171875,0.359375 0.171875,0.875 0.171875,1.359375 0,0.484375 0,0.984375 -0.171875,1.34375 C 3.1875,-0.109375 2.734375,-0.0625 2.5,-0.0625 Z m 0,0"
           id="path7264" />
      </symbol>
      <symbol
         overflow="visible"
         id="symbol4113">
        <path
           style="stroke:none"
           d="m 2.9375,-1.640625 v 0.859375 c 0,0.359375 -0.03125,0.46875 -0.765625,0.46875 H 1.96875 V 0 C 2.375,-0.03125 2.890625,-0.03125 3.3125,-0.03125 c 0.421875,0 0.9375,0 1.359375,0.03125 v -0.3125 h -0.21875 c -0.734375,0 -0.75,-0.109375 -0.75,-0.46875 V -1.640625 H 4.6875 v -0.3125 H 3.703125 v -4.53125 c 0,-0.203125 0,-0.265625 -0.171875,-0.265625 -0.078125,0 -0.109375,0 -0.1875,0.125 l -3.0625,4.671875 v 0.3125 z m 0.046875,-0.3125 H 0.5625 l 2.421875,-3.71875 z m 0,0"
           id="path473" />
      </symbol>
      <symbol
         overflow="visible"
         id="symbol2261">
        <path
           style="stroke:none"
           d="m 6.84375,-3.265625 c 0.15625,0 0.34375,0 0.34375,-0.1875 C 7.1875,-3.65625 7,-3.65625 6.859375,-3.65625 h -5.96875 c -0.140625,0 -0.328125,0 -0.328125,0.203125 0,0.1875 0.1875,0.1875 0.328125,0.1875 z m 0.015625,1.9375 c 0.140625,0 0.328125,0 0.328125,-0.203125 0,-0.1875 -0.1875,-0.1875 -0.34375,-0.1875 H 0.890625 c -0.140625,0 -0.328125,0 -0.328125,0.1875 0,0.203125 0.1875,0.203125 0.328125,0.203125 z m 0,0"
           id="path9734" />
      </symbol>
      <symbol
         overflow="visible"
         id="symbol7436">
        <path
           style="stroke:none"
           d="M 1.53125,-2.078125 1.90625,-6.625 c 0,-0.328125 -0.265625,-0.515625 -0.515625,-0.515625 -0.265625,0 -0.53125,0.1875 -0.53125,0.515625 L 1.25,-2.09375 c 0,0.15625 0.015625,0.234375 0.140625,0.234375 0.09375,0 0.125,-0.046875 0.140625,-0.21875 z m 0.375,1.546875 c 0,-0.28125 -0.234375,-0.53125 -0.515625,-0.53125 -0.296875,0 -0.53125,0.25 -0.53125,0.53125 C 0.859375,-0.234375 1.09375,0 1.390625,0 1.671875,0 1.90625,-0.234375 1.90625,-0.53125 Z m 0,0"
           id="path5001" />
      </symbol>
      <symbol
         overflow="visible"
         id="symbol3613">
        <path
           style="stroke:none"
           d="m 3.296875,2.390625 c 0,-0.03125 0,-0.046875 -0.171875,-0.21875 C 1.890625,0.921875 1.5625,-0.96875 1.5625,-2.5 c 0,-1.734375 0.375,-3.46875 1.609375,-4.703125 0.125,-0.125 0.125,-0.140625 0.125,-0.171875 0,-0.078125 -0.03125,-0.109375 -0.09375,-0.109375 -0.109375,0 -1,0.6875 -1.59375,1.953125 -0.5,1.09375 -0.625,2.203125 -0.625,3.03125 0,0.78125 0.109375,1.984375 0.65625,3.125 C 2.25,1.84375 3.09375,2.5 3.203125,2.5 c 0.0625,0 0.09375,-0.03125 0.09375,-0.109375 z m 0,0"
           id="path7088" />
      </symbol>
      <symbol
         overflow="visible"
         id="symbol7653">
        <path
           style="stroke:none"
           d="m 2.875,-2.5 c 0,-0.765625 -0.109375,-1.96875 -0.65625,-3.109375 -0.59375,-1.21875 -1.453125,-1.875 -1.546875,-1.875 -0.0625,0 -0.109375,0.046875 -0.109375,0.109375 0,0.03125 0,0.046875 0.1875,0.234375 0.984375,0.984375 1.546875,2.5625 1.546875,4.640625 0,1.71875 -0.359375,3.46875 -1.59375,4.71875 C 0.5625,2.34375 0.5625,2.359375 0.5625,2.390625 0.5625,2.453125 0.609375,2.5 0.671875,2.5 0.765625,2.5 1.671875,1.8125 2.25,0.546875 2.765625,-0.546875 2.875,-1.65625 2.875,-2.5 Z m 0,0"
           id="path6307" />
      </symbol>
      <symbol
         overflow="visible"
         id="symbol6442">
        <path
           style="stroke:none"
           d="m 2.9375,-6.375 c 0,-0.25 0,-0.265625 -0.234375,-0.265625 C 2.078125,-6 1.203125,-6 0.890625,-6 v 0.3125 c 0.203125,0 0.78125,0 1.296875,-0.265625 v 5.171875 c 0,0.359375 -0.03125,0.46875 -0.921875,0.46875 h -0.3125 V 0 c 0.34375,-0.03125 1.203125,-0.03125 1.609375,-0.03125 0.390625,0 1.265625,0 1.609375,0.03125 v -0.3125 h -0.3125 c -0.90625,0 -0.921875,-0.109375 -0.921875,-0.46875 z m 0,0"
           id="path5972" />
      </symbol>
      <symbol
         overflow="visible"
         id="symbol9821">
        <path
           style="stroke:none"
           d="m 4.46875,-2 c 0,-1.1875 -0.8125,-2.1875 -1.890625,-2.1875 -0.46875,0 -0.90625,0.15625 -1.265625,0.515625 V -5.625 c 0.203125,0.0625 0.53125,0.125 0.84375,0.125 1.234375,0 1.9375,-0.90625 1.9375,-1.03125 0,-0.0625 -0.03125,-0.109375 -0.109375,-0.109375 0,0 -0.03125,0 -0.078125,0.03125 C 3.703125,-6.515625 3.21875,-6.3125 2.546875,-6.3125 2.15625,-6.3125 1.6875,-6.390625 1.21875,-6.59375 1.140625,-6.625 1.125,-6.625 1.109375,-6.625 1,-6.625 1,-6.546875 1,-6.390625 V -3.4375 c 0,0.171875 0,0.25 0.140625,0.25 0.078125,0 0.09375,-0.015625 0.140625,-0.078125 C 1.390625,-3.421875 1.75,-3.96875 2.5625,-3.96875 c 0.515625,0 0.765625,0.453125 0.84375,0.640625 0.15625,0.375 0.1875,0.75 0.1875,1.25 0,0.359375 0,0.953125 -0.25,1.375 C 3.109375,-0.3125 2.734375,-0.0625 2.28125,-0.0625 c -0.71875,0 -1.296875,-0.53125 -1.46875,-1.109375 0.03125,0 0.0625,0.015625 0.171875,0.015625 0.328125,0 0.5,-0.25 0.5,-0.484375 0,-0.25 -0.171875,-0.5 -0.5,-0.5 C 0.84375,-2.140625 0.5,-2.0625 0.5,-1.609375 0.5,-0.75 1.1875,0.21875 2.296875,0.21875 3.453125,0.21875 4.46875,-0.734375 4.46875,-2 Z m 0,0"
           id="path3249" />
      </symbol>
      <symbol
         overflow="visible"
         id="symbol6798">
        <path
           style="stroke:none"
           d=""
           id="path1711" />
      </symbol>
      <symbol
         overflow="visible"
         id="symbol345">
        <path
           style="stroke:none"
           d="m 6.5625,-2.296875 c 0.171875,0 0.359375,0 0.359375,-0.203125 0,-0.1875 -0.1875,-0.1875 -0.359375,-0.1875 H 1.171875 c -0.171875,0 -0.34375,0 -0.34375,0.1875 0,0.203125 0.171875,0.203125 0.34375,0.203125 z m 0,0"
           id="path7789" />
      </symbol>
    </g>
  </defs>
  <g
     inkscape:label="Layer 1"
     inkscape:groupmode="layer"
     id="layer1"
     transform="translate(-17.16855,-16.307621)">
    <rect
       style="fill:#ffffff;stroke-width:1"
       id="rect995"
       width="98.471039"
       height="25.459538"
       x="17.16855"
       y="16.307621" />
    <g
       inkscape:label=""
       transform="translate(-76.17319,-54.883845)"
       id="g890">
      <g
         id="g6881">
        <g
           style="fill:#000000;fill-opacity:1"
           id="g1860">
          <use
             xlink:href="#symbol3092"
             x="91.925003"
             y="72.399002"
             id="use7684"
             width="100%"
             height="100%" />
        </g>
        <g
           style="fill:#000000;fill-opacity:1"
           id="g2551">
          <use
             xlink:href="#symbol9210"
             x="99.259003"
             y="80.369003"
             id="use620"
             width="100%"
             height="100%" />
        </g>
        <g
           style="fill:#000000;fill-opacity:1"
           id="g7250">
          <use
             xlink:href="#symbol4113"
             x="99.259003"
             y="92.323997"
             id="use5575"
             width="100%"
             height="100%" />
        </g>
        <g
           style="fill:#000000;fill-opacity:1"
           id="g5556">
          <use
             xlink:href="#symbol6078"
             x="104.24"
             y="72.399002"
             id="use4691"
             width="100%"
             height="100%" />
        </g>
        <g
           style="fill:#000000;fill-opacity:1"
           id="g2590">
          <use
             xlink:href="#symbol2261"
             x="114.341"
             y="86.445999"
             id="use6989"
             width="100%"
             height="100%" />
        </g>
        <g
           style="fill:#000000;fill-opacity:1"
           id="g7067">
          <use
             xlink:href="#symbol9210"
             x="142.38"
             y="79.706001"
             id="use4437"
             width="100%"
             height="100%" />
          <use
             xlink:href="#symbol7436"
             x="147.3613"
             y="79.706001"
             id="use5969"
             width="100%"
             height="100%" />
        </g>
        <path
           style="fill:none;stroke:#000000;stroke-width:0.398;stroke-linecap:butt;stroke-linejoin:miter;stroke-miterlimit:10;stroke-opacity:1"
           d="M 0.0016875,0.001875 H 40.404031"
           transform="matrix(1,0,0,-1,126.053,83.955)"
           id="path8871" />
        <g
           style="fill:#000000;fill-opacity:1"
           id="g2748">
          <use
             xlink:href="#symbol4113"
             x="126.053"
             y="93.279999"
             id="use9137"
             width="100%"
             height="100%" />
          <use
             xlink:href="#symbol7436"
             x="131.0343"
             y="93.279999"
             id="use2865"
             width="100%"
             height="100%" />
          <use
             xlink:href="#symbol3613"
             x="133.80191"
             y="93.279999"
             id="use4015"
             width="100%"
             height="100%" />
          <use
             xlink:href="#symbol9210"
             x="137.67636"
             y="93.279999"
             id="use9543"
             width="100%"
             height="100%" />
        </g>
        <g
           style="fill:#000000;fill-opacity:1"
           id="g7757">
          <use
             xlink:href="#symbol345"
             x="144.871"
             y="93.279999"
             id="use8747"
             width="100%"
             height="100%" />
        </g>
        <g
           style="fill:#000000;fill-opacity:1"
           id="g7504">
          <use
             xlink:href="#symbol4113"
             x="154.834"
             y="93.279999"
             id="use1747"
             width="100%"
             height="100%" />
          <use
             xlink:href="#symbol7653"
             x="159.81531"
             y="93.279999"
             id="use5859"
             width="100%"
             height="100%" />
          <use
             xlink:href="#symbol7436"
             x="163.68976"
             y="93.279999"
             id="use8857"
             width="100%"
             height="100%" />
        </g>
        <g
           style="fill:#000000;fill-opacity:1"
           id="g1477">
          <use
             xlink:href="#symbol2261"
             x="170.42"
             y="86.445999"
             id="use3721"
             width="100%"
             height="100%" />
        </g>
        <g
           style="fill:#000000;fill-opacity:1"
           id="g6842">
          <use
             xlink:href="#symbol6442"
             x="180.93851"
             y="86.445999"
             id="use2108"
             width="100%"
             height="100%" />
          <use
             xlink:href="#symbol9821"
             x="185.91982"
             y="86.445999"
             id="use8384"
             width="100%"
             height="100%" />
        </g>
      </g>
    </g>
  </g>
</svg>
