<?xml version="1.0" encoding="UTF-8" standalone="no"?>
<!-- Created with Inkscape (http://www.inkscape.org/) -->

<svg
   width="164.97766mm"
   height="38.453827mm"
   viewBox="0 0 164.97766 38.453827"
   version="1.1"
   id="svg1490"
   sodipodi:docname="sheet9-exercise2-alignment-sol1.svg"
   inkscape:version="1.1.1 (1:1.1+202109281949+c3084ef5ed)"
   xmlns:inkscape="http://www.inkscape.org/namespaces/inkscape"
   xmlns:sodipodi="http://sodipodi.sourceforge.net/DTD/sodipodi-0.dtd"
   xmlns:xlink="http://www.w3.org/1999/xlink"
   xmlns="http://www.w3.org/2000/svg"
   xmlns:svg="http://www.w3.org/2000/svg">
  <sodipodi:namedview
     id="namedview1492"
     pagecolor="#ffffff"
     bordercolor="#666666"
     borderopacity="1.0"
     inkscape:pageshadow="2"
     inkscape:pageopacity="0.0"
     inkscape:pagecheckerboard="0"
     inkscape:document-units="mm"
     showgrid="false"
     inkscape:zoom="0.22627417"
     inkscape:cx="-1076.1281"
     inkscape:cy="-978.90095"
     inkscape:window-width="1848"
     inkscape:window-height="1016"
     inkscape:window-x="72"
     inkscape:window-y="27"
     inkscape:window-maximized="1"
     inkscape:current-layer="layer1"
     fit-margin-top="0"
     fit-margin-left="0"
     fit-margin-right="0"
     fit-margin-bottom="0" />
  <defs
     id="defs1487">
    <g
       id="g7567">
      <symbol
         overflow="visible"
         id="symbol5844">
        <path
           style="stroke:none"
           d=""
           id="path4410" />
      </symbol>
      <symbol
         overflow="visible"
         id="symbol4715">
        <path
           style="stroke:none"
           d="m 4.828125,-5.796875 c 0,-0.15625 0,-0.40625 -0.296875,-0.40625 -0.1875,0 -0.234375,0.109375 -0.28125,0.171875 -0.015625,0.046875 -0.015625,0.0625 -0.15625,0.3125 C 3.765625,-6 3.3125,-6.203125 2.796875,-6.203125 c -1.28125,0 -2.390625,1.34375 -2.390625,3.15625 0,1.828125 1.109375,3.15625 2.40625,3.15625 1.15625,0 2.015625,-0.890625 2.015625,-1.78125 C 4.828125,-2 4.578125,-2 4.46875,-2 4.390625,-2 4.15625,-2 4.140625,-1.71875 4.0625,-0.734375 3.265625,-0.5 2.84375,-0.5 c -0.90625,0 -1.75,-1.0625 -1.75,-2.546875 0,-1.484375 0.859375,-2.546875 1.75,-2.546875 0.59375,0 1.140625,0.453125 1.28125,1.265625 C 4.15625,-4.15625 4.171875,-4 4.46875,-4 4.828125,-4 4.828125,-4.203125 4.828125,-4.40625 Z m 0,0"
           id="path2588" />
      </symbol>
      <symbol
         overflow="visible"
         id="symbol2164">
        <path
           style="stroke:none"
           d="M 2.953125,-5.484375 H 4.28125 v 0.53125 c 0,0.1875 0,0.40625 0.328125,0.40625 0.359375,0 0.359375,-0.203125 0.359375,-0.40625 V -5.6875 c 0,-0.296875 -0.0625,-0.40625 -0.40625,-0.40625 H 0.671875 c -0.328125,0 -0.40625,0.078125 -0.40625,0.40625 v 0.734375 c 0,0.1875 0,0.40625 0.328125,0.40625 0.359375,0 0.359375,-0.203125 0.359375,-0.40625 v -0.53125 h 1.3125 v 4.875 H 1.75 c -0.140625,0 -0.390625,0 -0.390625,0.296875 C 1.359375,0 1.59375,0 1.75,0 H 3.484375 C 3.625,0 3.875,0 3.875,-0.296875 c 0,-0.3125 -0.234375,-0.3125 -0.390625,-0.3125 h -0.53125 z m 0,0"
           id="path7685" />
      </symbol>
      <symbol
         overflow="visible"
         id="symbol4992">
        <path
           style="stroke:none"
           d="m 3.15625,-5.828125 c -0.09375,-0.375 -0.234375,-0.375 -0.546875,-0.375 -0.28125,0 -0.453125,0 -0.53125,0.375 L 0.875,-0.609375 c -0.140625,0 -0.375,0 -0.4375,0.015625 -0.109375,0.0625 -0.171875,0.171875 -0.171875,0.296875 C 0.265625,0 0.53125,0 0.703125,0 H 1.71875 c 0.171875,0 0.421875,0 0.421875,-0.296875 0,-0.3125 -0.203125,-0.3125 -0.5625,-0.3125 l 0.21875,-1.03125 h 1.625 l 0.234375,1.03125 c -0.359375,0 -0.5625,0 -0.5625,0.3125 C 3.09375,0 3.328125,0 3.515625,0 H 4.53125 c 0.15625,0 0.421875,0 0.421875,-0.296875 0,-0.125 -0.046875,-0.234375 -0.171875,-0.28125 C 4.71875,-0.609375 4.5,-0.609375 4.359375,-0.609375 Z M 2.609375,-5.40625 H 2.625 L 3.265625,-2.25 h -1.3125 z m 0,0"
           id="path775" />
      </symbol>
      <symbol
         overflow="visible"
         id="symbol9855">
        <path
           style="stroke:none"
           d="m 4.203125,-2.703125 c 0.109375,0 0.46875,0 0.46875,-0.34375 0,-0.359375 -0.359375,-0.359375 -0.46875,-0.359375 H 1.03125 c -0.125,0 -0.46875,0 -0.46875,0.359375 0,0.34375 0.34375,0.34375 0.46875,0.34375 z m 0,0"
           id="path5660" />
      </symbol>
      <symbol
         overflow="visible"
         id="symbol4083">
        <path
           style="stroke:none"
           d="m 4.65625,-2.15625 c 0,-1.25 -0.921875,-2.234375 -2.046875,-2.234375 -1.109375,0 -2.046875,0.984375 -2.046875,2.234375 0,1.265625 0.953125,2.21875 2.046875,2.21875 1.09375,0 2.046875,-0.953125 2.046875,-2.21875 z M 2.609375,-0.546875 C 1.875,-0.546875 1.25,-1.296875 1.25,-2.21875 c 0,-0.90625 0.65625,-1.5625 1.359375,-1.5625 0.71875,0 1.359375,0.65625 1.359375,1.5625 0,0.921875 -0.625,1.671875 -1.359375,1.671875 z m 0,0"
           id="path7400" />
      </symbol>
      <symbol
         overflow="visible"
         id="symbol5410">
        <path
           style="stroke:none"
           d="M 2.21875,-1.859375 C 2.21875,-2.796875 2.796875,-3.75 4,-3.75 c 0.015625,0.234375 0.1875,0.4375 0.4375,0.4375 0.21875,0 0.421875,-0.15625 0.421875,-0.421875 0,-0.203125 -0.125,-0.625 -0.953125,-0.625 -0.5,0 -1.140625,0.1875 -1.6875,0.8125 v -0.34375 c 0,-0.3125 -0.0625,-0.40625 -0.40625,-0.40625 H 0.71875 c -0.15625,0 -0.40625,0 -0.40625,0.296875 0,0.3125 0.25,0.3125 0.40625,0.3125 h 0.8125 v 3.078125 h -0.8125 c -0.15625,0 -0.40625,0 -0.40625,0.296875 C 0.3125,0 0.5625,0 0.71875,0 H 3.3125 c 0.15625,0 0.421875,0 0.421875,-0.296875 0,-0.3125 -0.265625,-0.3125 -0.421875,-0.3125 H 2.21875 Z m 0,0"
           id="path496" />
      </symbol>
      <symbol
         overflow="visible"
         id="symbol459">
        <path
           style="stroke:none"
           d="m 4.46875,-2.078125 c 0.25,0 0.46875,0 0.46875,-0.3125 0,-0.296875 -0.25,-0.296875 -0.40625,-0.296875 h -1.1875 c -0.140625,0 -0.390625,0 -0.390625,0.296875 0,0.3125 0.234375,0.3125 0.390625,0.3125 H 3.765625 C 3.65625,-0.96875 3.15625,-0.5 2.625,-0.5 c -0.796875,0 -1.5625,-1.078125 -1.5625,-2.546875 0,-1.515625 0.796875,-2.546875 1.578125,-2.546875 0.34375,0 0.984375,0.234375 1.140625,1.3125 C 3.8125,-4.109375 3.875,-4 4.125,-4 4.46875,-4 4.46875,-4.203125 4.46875,-4.40625 v -1.390625 c 0,-0.15625 0,-0.40625 -0.296875,-0.40625 -0.203125,0 -0.25,0.109375 -0.40625,0.453125 -0.34375,-0.296875 -0.75,-0.453125 -1.15625,-0.453125 -1.203125,0 -2.234375,1.34375 -2.234375,3.15625 0,1.828125 1.046875,3.15625 2.234375,3.15625 0.5625,0 0.984375,-0.296875 1.171875,-0.53125 C 3.78125,-0.203125 3.78125,0 4.140625,0 4.46875,0 4.46875,-0.21875 4.46875,-0.40625 Z m 0,0"
           id="path9480" />
      </symbol>
      <symbol
         overflow="visible"
         id="symbol7841">
        <path
           style="stroke:none"
           d="m 2.90625,-3.25 1.125,-2.234375 H 4.25 c 0.140625,0 0.40625,0 0.40625,-0.296875 0,-0.3125 -0.265625,-0.3125 -0.40625,-0.3125 H 3.203125 c -0.140625,0 -0.390625,0 -0.390625,0.296875 0,0.3125 0.234375,0.3125 0.453125,0.3125 L 2.5625,-4.03125 1.796875,-5.484375 c 0.203125,0 0.421875,0 0.421875,-0.3125 0,-0.296875 -0.25,-0.296875 -0.390625,-0.296875 H 0.78125 c -0.140625,0 -0.40625,0 -0.40625,0.296875 0,0.3125 0.265625,0.3125 0.40625,0.3125 h 0.234375 l 1.203125,2.25 -1.328125,2.625 h -0.21875 c -0.15625,0 -0.40625,0 -0.40625,0.3125 C 0.265625,0 0.515625,0 0.671875,0 h 1.03125 c 0.15625,0 0.40625,0 0.40625,-0.296875 0,-0.3125 -0.234375,-0.3125 -0.46875,-0.3125 l 0.921875,-1.9375 0.984375,1.9375 c -0.234375,0 -0.453125,0 -0.453125,0.3125 C 3.09375,0 3.34375,0 3.5,0 H 4.53125 C 4.6875,0 4.9375,0 4.9375,-0.296875 c 0,-0.3125 -0.25,-0.3125 -0.40625,-0.3125 H 4.3125 Z m 0,0"
           id="path4475" />
      </symbol>
      <symbol
         overflow="visible"
         id="symbol8630">
        <path
           style="stroke:none"
           d=""
           id="path4993" />
      </symbol>
      <symbol
         overflow="visible"
         id="symbol506">
        <path
           style="stroke:none"
           d="M 1.78125,-1.140625 C 1.390625,-0.484375 1,-0.34375 0.5625,-0.3125 0.4375,-0.296875 0.34375,-0.296875 0.34375,-0.109375 0.34375,-0.046875 0.40625,0 0.484375,0 0.75,0 1.0625,-0.03125 1.328125,-0.03125 c 0.34375,0 0.6875,0.03125 1,0.03125 0.0625,0 0.1875,0 0.1875,-0.1875 0,-0.109375 -0.078125,-0.125 -0.15625,-0.125 -0.21875,-0.015625 -0.46875,-0.09375 -0.46875,-0.34375 0,-0.125 0.0625,-0.234375 0.140625,-0.375 l 0.765625,-1.265625 h 2.5 c 0.015625,0.203125 0.15625,1.5625 0.15625,1.65625 0,0.296875 -0.515625,0.328125 -0.71875,0.328125 C 4.59375,-0.3125 4.5,-0.3125 4.5,-0.109375 4.5,0 4.609375,0 4.640625,0 5.046875,0 5.46875,-0.03125 5.875,-0.03125 6.125,-0.03125 6.765625,0 7.015625,0 7.0625,0 7.1875,0 7.1875,-0.203125 7.1875,-0.3125 7.09375,-0.3125 6.953125,-0.3125 6.34375,-0.3125 6.34375,-0.375 6.3125,-0.671875 l -0.609375,-6.21875 c -0.015625,-0.203125 -0.015625,-0.25 -0.1875,-0.25 -0.15625,0 -0.203125,0.078125 -0.265625,0.171875 z M 2.984375,-2.609375 4.9375,-5.90625 5.265625,-2.609375 Z m 0,0"
           id="path593" />
      </symbol>
      <symbol
         overflow="visible"
         id="symbol7724">
        <path
           style="stroke:none"
           d=""
           id="path9751" />
      </symbol>
      <symbol
         overflow="visible"
         id="symbol165">
        <path
           style="stroke:none"
           d="m 2.328125,-4.4375 c 0,-0.1875 0,-0.1875 -0.203125,-0.1875 -0.453125,0.4375 -1.078125,0.4375 -1.359375,0.4375 v 0.25 c 0.15625,0 0.625,0 1,-0.1875 v 3.546875 c 0,0.234375 0,0.328125 -0.6875,0.328125 H 0.8125 V 0 c 0.125,0 0.984375,-0.03125 1.234375,-0.03125 0.21875,0 1.09375,0.03125 1.25,0.03125 V -0.25 H 3.03125 c -0.703125,0 -0.703125,-0.09375 -0.703125,-0.328125 z m 0,0"
           id="path1017" />
      </symbol>
      <symbol
         overflow="visible"
         id="symbol3612">
        <path
           style="stroke:none"
           d="m 1.90625,-2.328125 c 0.546875,0 0.9375,0.375 0.9375,1.125 0,0.859375 -0.515625,1.125 -0.90625,1.125 -0.28125,0 -0.90625,-0.078125 -1.1875,-0.5 0.328125,0 0.40625,-0.234375 0.40625,-0.390625 0,-0.21875 -0.171875,-0.375 -0.390625,-0.375 -0.1875,0 -0.390625,0.125 -0.390625,0.40625 0,0.65625 0.71875,1.078125 1.5625,1.078125 0.96875,0 1.640625,-0.65625 1.640625,-1.34375 0,-0.546875 -0.4375,-1.09375 -1.203125,-1.25 0.71875,-0.265625 0.984375,-0.78125 0.984375,-1.21875 0,-0.546875 -0.625,-0.953125 -1.40625,-0.953125 -0.765625,0 -1.359375,0.375 -1.359375,0.9375 0,0.234375 0.15625,0.359375 0.359375,0.359375 0.21875,0 0.359375,-0.15625 0.359375,-0.34375 0,-0.203125 -0.140625,-0.359375 -0.359375,-0.375 0.25,-0.296875 0.71875,-0.375 0.984375,-0.375 0.3125,0 0.75,0.15625 0.75,0.75 0,0.296875 -0.09375,0.625 -0.28125,0.828125 -0.21875,0.265625 -0.421875,0.28125 -0.765625,0.3125 -0.171875,0.015625 -0.1875,0.015625 -0.21875,0.015625 -0.015625,0 -0.078125,0.015625 -0.078125,0.09375 0,0.09375 0.0625,0.09375 0.1875,0.09375 z m 0,0"
           id="path1225" />
      </symbol>
      <symbol
         overflow="visible"
         id="symbol9179">
        <path
           style="stroke:none"
           d="M 3.515625,-1.265625 H 3.28125 c -0.015625,0.15625 -0.09375,0.5625 -0.1875,0.625 C 3.046875,-0.59375 2.515625,-0.59375 2.40625,-0.59375 H 1.125 c 0.734375,-0.640625 0.984375,-0.84375 1.390625,-1.171875 0.515625,-0.40625 1,-0.84375 1,-1.5 0,-0.84375 -0.734375,-1.359375 -1.625,-1.359375 -0.859375,0 -1.453125,0.609375 -1.453125,1.25 0,0.34375 0.296875,0.390625 0.375,0.390625 0.15625,0 0.359375,-0.125 0.359375,-0.375 0,-0.125 -0.046875,-0.375 -0.40625,-0.375 C 0.984375,-4.21875 1.453125,-4.375 1.78125,-4.375 c 0.703125,0 1.0625,0.546875 1.0625,1.109375 0,0.609375 -0.4375,1.078125 -0.65625,1.328125 L 0.515625,-0.265625 C 0.4375,-0.203125 0.4375,-0.1875 0.4375,0 h 2.875 z m 0,0"
           id="path5044" />
      </symbol>
      <symbol
         overflow="visible"
         id="symbol6836">
        <path
           style="stroke:none"
           d=""
           id="path7515" />
      </symbol>
      <symbol
         overflow="visible"
         id="symbol8041">
        <path
           style="stroke:none"
           d="m 6.84375,-3.265625 c 0.15625,0 0.34375,0 0.34375,-0.1875 C 7.1875,-3.65625 7,-3.65625 6.859375,-3.65625 h -5.96875 c -0.140625,0 -0.328125,0 -0.328125,0.203125 0,0.1875 0.1875,0.1875 0.328125,0.1875 z m 0.015625,1.9375 c 0.140625,0 0.328125,0 0.328125,-0.203125 0,-0.1875 -0.1875,-0.1875 -0.34375,-0.1875 H 0.890625 c -0.140625,0 -0.328125,0 -0.328125,0.1875 0,0.203125 0.1875,0.203125 0.328125,0.203125 z m 0,0"
           id="path6977" />
      </symbol>
      <symbol
         overflow="visible"
         id="symbol8360">
        <path
           style="stroke:none"
           d="m 3.296875,2.390625 c 0,-0.03125 0,-0.046875 -0.171875,-0.21875 C 1.890625,0.921875 1.5625,-0.96875 1.5625,-2.5 c 0,-1.734375 0.375,-3.46875 1.609375,-4.703125 0.125,-0.125 0.125,-0.140625 0.125,-0.171875 0,-0.078125 -0.03125,-0.109375 -0.09375,-0.109375 -0.109375,0 -1,0.6875 -1.59375,1.953125 -0.5,1.09375 -0.625,2.203125 -0.625,3.03125 0,0.78125 0.109375,1.984375 0.65625,3.125 C 2.25,1.84375 3.09375,2.5 3.203125,2.5 c 0.0625,0 0.09375,-0.03125 0.09375,-0.109375 z m 0,0"
           id="path6615" />
      </symbol>
      <symbol
         overflow="visible"
         id="symbol3668">
        <path
           style="stroke:none"
           d="m 2.9375,-6.375 c 0,-0.25 0,-0.265625 -0.234375,-0.265625 C 2.078125,-6 1.203125,-6 0.890625,-6 v 0.3125 c 0.203125,0 0.78125,0 1.296875,-0.265625 v 5.171875 c 0,0.359375 -0.03125,0.46875 -0.921875,0.46875 h -0.3125 V 0 c 0.34375,-0.03125 1.203125,-0.03125 1.609375,-0.03125 0.390625,0 1.265625,0 1.609375,0.03125 v -0.3125 h -0.3125 c -0.90625,0 -0.921875,-0.109375 -0.921875,-0.46875 z m 0,0"
           id="path4774" />
      </symbol>
      <symbol
         overflow="visible"
         id="symbol9819">
        <path
           style="stroke:none"
           d="m 2.875,-2.5 c 0,-0.765625 -0.109375,-1.96875 -0.65625,-3.109375 -0.59375,-1.21875 -1.453125,-1.875 -1.546875,-1.875 -0.0625,0 -0.109375,0.046875 -0.109375,0.109375 0,0.03125 0,0.046875 0.1875,0.234375 0.984375,0.984375 1.546875,2.5625 1.546875,4.640625 0,1.71875 -0.359375,3.46875 -1.59375,4.71875 C 0.5625,2.34375 0.5625,2.359375 0.5625,2.390625 0.5625,2.453125 0.609375,2.5 0.671875,2.5 0.765625,2.5 1.671875,1.8125 2.25,0.546875 2.765625,-0.546875 2.875,-1.65625 2.875,-2.5 Z m 0,0"
           id="path5766" />
      </symbol>
      <symbol
         overflow="visible"
         id="symbol4218">
        <path
           style="stroke:none"
           d="m 3.484375,-3.875 -1.28125,-0.296875 c -0.625,-0.15625 -1,-0.6875 -1,-1.265625 0,-0.703125 0.53125,-1.3125 1.3125,-1.3125 1.65625,0 1.875,1.640625 1.9375,2.078125 0.015625,0.0625 0.015625,0.125 0.125,0.125 0.125,0 0.125,-0.046875 0.125,-0.234375 v -2 c 0,-0.171875 0,-0.25 -0.109375,-0.25 -0.0625,0 -0.078125,0.015625 -0.140625,0.140625 l -0.359375,0.5625 C 3.796875,-6.625 3.390625,-7.03125 2.5,-7.03125 c -1.109375,0 -1.9375,0.875 -1.9375,1.9375 0,0.828125 0.53125,1.5625 1.296875,1.828125 0.109375,0.03125 0.625,0.15625 1.328125,0.328125 0.265625,0.0625 0.5625,0.140625 0.84375,0.5 0.203125,0.265625 0.3125,0.59375 0.3125,0.921875 0,0.703125 -0.5,1.421875 -1.34375,1.421875 -0.28125,0 -1.046875,-0.046875 -1.578125,-0.53125 C 0.84375,-1.171875 0.8125,-1.796875 0.8125,-2.15625 0.796875,-2.265625 0.71875,-2.265625 0.6875,-2.265625 c -0.125,0 -0.125,0.078125 -0.125,0.25 v 2 c 0,0.171875 0,0.234375 0.109375,0.234375 0.0625,0 0.078125,-0.015625 0.140625,-0.125 0,-0.015625 0.03125,-0.046875 0.359375,-0.578125 0.3125,0.34375 0.953125,0.703125 1.84375,0.703125 1.15625,0 1.953125,-0.96875 1.953125,-2.078125 0,-0.984375 -0.65625,-1.8125 -1.484375,-2.015625 z m 0,0"
           id="path7553" />
      </symbol>
      <symbol
         overflow="visible"
         id="symbol5556">
        <path
           style="stroke:none"
           d="M 4.6875,-2.140625 C 4.6875,-3.40625 3.703125,-4.46875 2.5,-4.46875 c -1.25,0 -2.21875,1.09375 -2.21875,2.328125 0,1.296875 1.03125,2.25 2.203125,2.25 1.203125,0 2.203125,-0.984375 2.203125,-2.25 z m -2.1875,2 c -0.4375,0 -0.875,-0.203125 -1.140625,-0.671875 -0.25,-0.4375 -0.25,-1.046875 -0.25,-1.40625 0,-0.390625 0,-0.921875 0.234375,-1.359375 C 1.609375,-4.03125 2.078125,-4.25 2.484375,-4.25 c 0.4375,0 0.859375,0.21875 1.125,0.65625 0.265625,0.421875 0.265625,1 0.265625,1.375 0,0.359375 0,0.90625 -0.21875,1.34375 C 3.421875,-0.421875 2.984375,-0.140625 2.5,-0.140625 Z m 0,0"
           id="path9517" />
      </symbol>
      <symbol
         overflow="visible"
         id="symbol8047">
        <path
           style="stroke:none"
           d="m 2.265625,-3.15625 h 1.6875 c 1.1875,0 2.265625,-0.796875 2.265625,-1.796875 C 6.21875,-5.9375 5.234375,-6.8125 3.875,-6.8125 H 0.34375 V -6.5 h 0.25 c 0.765625,0 0.78125,0.109375 0.78125,0.46875 v 5.25 c 0,0.359375 -0.015625,0.46875 -0.78125,0.46875 h -0.25 V 0 c 0.359375,-0.03125 1.09375,-0.03125 1.46875,-0.03125 0.375,0 1.125,0 1.484375,0.03125 v -0.3125 h -0.25 c -0.765625,0 -0.78125,-0.109375 -0.78125,-0.46875 z m -0.03125,-0.25 v -2.6875 C 2.234375,-6.4375 2.25,-6.5 2.71875,-6.5 h 0.890625 c 1.578125,0 1.578125,1.0625 1.578125,1.546875 0,0.46875 0,1.546875 -1.578125,1.546875 z m 0,0"
           id="path3795" />
      </symbol>
      <symbol
         overflow="visible"
         id="symbol2367">
        <path
           style="stroke:none"
           d="m 4.578125,-3.1875 c 0,-0.796875 -0.046875,-1.59375 -0.390625,-2.328125 -0.453125,-0.96875 -1.28125,-1.125 -1.6875,-1.125 -0.609375,0 -1.328125,0.265625 -1.75,1.1875 -0.3125,0.6875 -0.359375,1.46875 -0.359375,2.265625 0,0.75 0.03125,1.640625 0.453125,2.40625 0.421875,0.796875 1.15625,1 1.640625,1 0.53125,0 1.296875,-0.203125 1.734375,-1.15625 0.3125,-0.6875 0.359375,-1.46875 0.359375,-2.25 z M 2.484375,0 C 2.09375,0 1.5,-0.25 1.328125,-1.203125 1.21875,-1.796875 1.21875,-2.71875 1.21875,-3.3125 c 0,-0.640625 0,-1.296875 0.078125,-1.828125 0.1875,-1.1875 0.9375,-1.28125 1.1875,-1.28125 0.328125,0 0.984375,0.1875 1.171875,1.171875 0.109375,0.5625 0.109375,1.3125 0.109375,1.9375 0,0.75 0,1.421875 -0.109375,2.0625 C 3.5,-0.296875 2.9375,0 2.484375,0 Z m 0,0"
           id="path7802" />
      </symbol>
      <symbol
         overflow="visible"
         id="symbol9685">
        <path
           style="stroke:none"
           d="M 1.671875,-3.3125 V -4.40625 L 0.28125,-4.296875 v 0.3125 c 0.703125,0 0.78125,0.0625 0.78125,0.5625 V -0.75 c 0,0.4375 -0.109375,0.4375 -0.78125,0.4375 V 0 c 0.390625,-0.015625 0.859375,-0.03125 1.140625,-0.03125 0.390625,0 0.859375,0 1.265625,0.03125 V -0.3125 H 2.46875 c -0.734375,0 -0.75,-0.109375 -0.75,-0.46875 V -2.3125 c 0,-0.984375 0.421875,-1.875 1.171875,-1.875 0.0625,0 0.09375,0 0.109375,0.015625 -0.03125,0 -0.234375,0.125 -0.234375,0.390625 0,0.265625 0.21875,0.421875 0.4375,0.421875 0.171875,0 0.421875,-0.125 0.421875,-0.4375 0,-0.3125 -0.3125,-0.609375 -0.734375,-0.609375 -0.734375,0 -1.09375,0.671875 -1.21875,1.09375 z m 0,0"
           id="path4316" />
      </symbol>
      <symbol
         overflow="visible"
         id="symbol2143">
        <path
           style="stroke:none"
           d="m 1.265625,-0.765625 1.0625,-1.03125 c 1.546875,-1.375 2.140625,-1.90625 2.140625,-2.90625 0,-1.140625 -0.890625,-1.9375 -2.109375,-1.9375 -1.125,0 -1.859375,0.921875 -1.859375,1.8125 0,0.546875 0.5,0.546875 0.53125,0.546875 0.171875,0 0.515625,-0.109375 0.515625,-0.53125 0,-0.25 -0.1875,-0.515625 -0.53125,-0.515625 -0.078125,0 -0.09375,0 -0.125,0.015625 0.21875,-0.65625 0.765625,-1.015625 1.34375,-1.015625 0.90625,0 1.328125,0.8125 1.328125,1.625 C 3.5625,-3.90625 3.078125,-3.125 2.515625,-2.5 l -1.90625,2.125 C 0.5,-0.265625 0.5,-0.234375 0.5,0 H 4.203125 L 4.46875,-1.734375 H 4.234375 C 4.171875,-1.4375 4.109375,-1 4,-0.84375 3.9375,-0.765625 3.28125,-0.765625 3.0625,-0.765625 Z m 0,0"
           id="path3741" />
      </symbol>
    </g>
    <g
       id="g1020">
      <symbol
         overflow="visible"
         id="symbol7100">
        <path
           style="stroke:none"
           d=""
           id="path3611" />
      </symbol>
      <symbol
         overflow="visible"
         id="symbol670">
        <path
           style="stroke:none"
           d="m 4.828125,-5.796875 c 0,-0.15625 0,-0.40625 -0.296875,-0.40625 -0.1875,0 -0.234375,0.109375 -0.28125,0.171875 -0.015625,0.046875 -0.015625,0.0625 -0.15625,0.3125 C 3.765625,-6 3.3125,-6.203125 2.796875,-6.203125 c -1.28125,0 -2.390625,1.34375 -2.390625,3.15625 0,1.828125 1.109375,3.15625 2.40625,3.15625 1.15625,0 2.015625,-0.890625 2.015625,-1.78125 C 4.828125,-2 4.578125,-2 4.46875,-2 4.390625,-2 4.15625,-2 4.140625,-1.71875 4.0625,-0.734375 3.265625,-0.5 2.84375,-0.5 c -0.90625,0 -1.75,-1.0625 -1.75,-2.546875 0,-1.484375 0.859375,-2.546875 1.75,-2.546875 0.59375,0 1.140625,0.453125 1.28125,1.265625 C 4.15625,-4.15625 4.171875,-4 4.46875,-4 4.828125,-4 4.828125,-4.203125 4.828125,-4.40625 Z m 0,0"
           id="path7527" />
      </symbol>
      <symbol
         overflow="visible"
         id="symbol8797">
        <path
           style="stroke:none"
           d="M 2.953125,-5.484375 H 4.28125 v 0.53125 c 0,0.1875 0,0.40625 0.328125,0.40625 0.359375,0 0.359375,-0.203125 0.359375,-0.40625 V -5.6875 c 0,-0.296875 -0.0625,-0.40625 -0.40625,-0.40625 H 0.671875 c -0.328125,0 -0.40625,0.078125 -0.40625,0.40625 v 0.734375 c 0,0.1875 0,0.40625 0.328125,0.40625 0.359375,0 0.359375,-0.203125 0.359375,-0.40625 v -0.53125 h 1.3125 v 4.875 H 1.75 c -0.140625,0 -0.390625,0 -0.390625,0.296875 C 1.359375,0 1.59375,0 1.75,0 H 3.484375 C 3.625,0 3.875,0 3.875,-0.296875 c 0,-0.3125 -0.234375,-0.3125 -0.390625,-0.3125 h -0.53125 z m 0,0"
           id="path2009" />
      </symbol>
      <symbol
         overflow="visible"
         id="symbol3992">
        <path
           style="stroke:none"
           d="m 3.15625,-5.828125 c -0.09375,-0.375 -0.234375,-0.375 -0.546875,-0.375 -0.28125,0 -0.453125,0 -0.53125,0.375 L 0.875,-0.609375 c -0.140625,0 -0.375,0 -0.4375,0.015625 -0.109375,0.0625 -0.171875,0.171875 -0.171875,0.296875 C 0.265625,0 0.53125,0 0.703125,0 H 1.71875 c 0.171875,0 0.421875,0 0.421875,-0.296875 0,-0.3125 -0.203125,-0.3125 -0.5625,-0.3125 l 0.21875,-1.03125 h 1.625 l 0.234375,1.03125 c -0.359375,0 -0.5625,0 -0.5625,0.3125 C 3.09375,0 3.328125,0 3.515625,0 H 4.53125 c 0.15625,0 0.421875,0 0.421875,-0.296875 0,-0.125 -0.046875,-0.234375 -0.171875,-0.28125 C 4.71875,-0.609375 4.5,-0.609375 4.359375,-0.609375 Z M 2.609375,-5.40625 H 2.625 L 3.265625,-2.25 h -1.3125 z m 0,0"
           id="path6252" />
      </symbol>
      <symbol
         overflow="visible"
         id="symbol505">
        <path
           style="stroke:none"
           d="m 4.203125,-2.703125 c 0.109375,0 0.46875,0 0.46875,-0.34375 0,-0.359375 -0.359375,-0.359375 -0.46875,-0.359375 H 1.03125 c -0.125,0 -0.46875,0 -0.46875,0.359375 0,0.34375 0.34375,0.34375 0.46875,0.34375 z m 0,0"
           id="path865" />
      </symbol>
      <symbol
         overflow="visible"
         id="symbol3314">
        <path
           style="stroke:none"
           d="m 4.65625,-2.15625 c 0,-1.25 -0.921875,-2.234375 -2.046875,-2.234375 -1.109375,0 -2.046875,0.984375 -2.046875,2.234375 0,1.265625 0.953125,2.21875 2.046875,2.21875 1.09375,0 2.046875,-0.953125 2.046875,-2.21875 z M 2.609375,-0.546875 C 1.875,-0.546875 1.25,-1.296875 1.25,-2.21875 c 0,-0.90625 0.65625,-1.5625 1.359375,-1.5625 0.71875,0 1.359375,0.65625 1.359375,1.5625 0,0.921875 -0.625,1.671875 -1.359375,1.671875 z m 0,0"
           id="path5792" />
      </symbol>
      <symbol
         overflow="visible"
         id="symbol7184">
        <path
           style="stroke:none"
           d="M 2.21875,-1.859375 C 2.21875,-2.796875 2.796875,-3.75 4,-3.75 c 0.015625,0.234375 0.1875,0.4375 0.4375,0.4375 0.21875,0 0.421875,-0.15625 0.421875,-0.421875 0,-0.203125 -0.125,-0.625 -0.953125,-0.625 -0.5,0 -1.140625,0.1875 -1.6875,0.8125 v -0.34375 c 0,-0.3125 -0.0625,-0.40625 -0.40625,-0.40625 H 0.71875 c -0.15625,0 -0.40625,0 -0.40625,0.296875 0,0.3125 0.25,0.3125 0.40625,0.3125 h 0.8125 v 3.078125 h -0.8125 c -0.15625,0 -0.40625,0 -0.40625,0.296875 C 0.3125,0 0.5625,0 0.71875,0 H 3.3125 c 0.15625,0 0.421875,0 0.421875,-0.296875 0,-0.3125 -0.265625,-0.3125 -0.421875,-0.3125 H 2.21875 Z m 0,0"
           id="path8534" />
      </symbol>
      <symbol
         overflow="visible"
         id="symbol1725">
        <path
           style="stroke:none"
           d="m 4.46875,-2.078125 c 0.25,0 0.46875,0 0.46875,-0.3125 0,-0.296875 -0.25,-0.296875 -0.40625,-0.296875 h -1.1875 c -0.140625,0 -0.390625,0 -0.390625,0.296875 0,0.3125 0.234375,0.3125 0.390625,0.3125 H 3.765625 C 3.65625,-0.96875 3.15625,-0.5 2.625,-0.5 c -0.796875,0 -1.5625,-1.078125 -1.5625,-2.546875 0,-1.515625 0.796875,-2.546875 1.578125,-2.546875 0.34375,0 0.984375,0.234375 1.140625,1.3125 C 3.8125,-4.109375 3.875,-4 4.125,-4 4.46875,-4 4.46875,-4.203125 4.46875,-4.40625 v -1.390625 c 0,-0.15625 0,-0.40625 -0.296875,-0.40625 -0.203125,0 -0.25,0.109375 -0.40625,0.453125 -0.34375,-0.296875 -0.75,-0.453125 -1.15625,-0.453125 -1.203125,0 -2.234375,1.34375 -2.234375,3.15625 0,1.828125 1.046875,3.15625 2.234375,3.15625 0.5625,0 0.984375,-0.296875 1.171875,-0.53125 C 3.78125,-0.203125 3.78125,0 4.140625,0 4.46875,0 4.46875,-0.21875 4.46875,-0.40625 Z m 0,0"
           id="path9649" />
      </symbol>
      <symbol
         overflow="visible"
         id="symbol3229">
        <path
           style="stroke:none"
           d="m 2.90625,-3.25 1.125,-2.234375 H 4.25 c 0.140625,0 0.40625,0 0.40625,-0.296875 0,-0.3125 -0.265625,-0.3125 -0.40625,-0.3125 H 3.203125 c -0.140625,0 -0.390625,0 -0.390625,0.296875 0,0.3125 0.234375,0.3125 0.453125,0.3125 L 2.5625,-4.03125 1.796875,-5.484375 c 0.203125,0 0.421875,0 0.421875,-0.3125 0,-0.296875 -0.25,-0.296875 -0.390625,-0.296875 H 0.78125 c -0.140625,0 -0.40625,0 -0.40625,0.296875 0,0.3125 0.265625,0.3125 0.40625,0.3125 h 0.234375 l 1.203125,2.25 -1.328125,2.625 h -0.21875 c -0.15625,0 -0.40625,0 -0.40625,0.3125 C 0.265625,0 0.515625,0 0.671875,0 h 1.03125 c 0.15625,0 0.40625,0 0.40625,-0.296875 0,-0.3125 -0.234375,-0.3125 -0.46875,-0.3125 l 0.921875,-1.9375 0.984375,1.9375 c -0.234375,0 -0.453125,0 -0.453125,0.3125 C 3.09375,0 3.34375,0 3.5,0 H 4.53125 C 4.6875,0 4.9375,0 4.9375,-0.296875 c 0,-0.3125 -0.25,-0.3125 -0.40625,-0.3125 H 4.3125 Z m 0,0"
           id="path2721" />
      </symbol>
      <symbol
         overflow="visible"
         id="symbol6656">
        <path
           style="stroke:none"
           d=""
           id="path5673" />
      </symbol>
      <symbol
         overflow="visible"
         id="symbol5643">
        <path
           style="stroke:none"
           d="M 1.78125,-1.140625 C 1.390625,-0.484375 1,-0.34375 0.5625,-0.3125 0.4375,-0.296875 0.34375,-0.296875 0.34375,-0.109375 0.34375,-0.046875 0.40625,0 0.484375,0 0.75,0 1.0625,-0.03125 1.328125,-0.03125 c 0.34375,0 0.6875,0.03125 1,0.03125 0.0625,0 0.1875,0 0.1875,-0.1875 0,-0.109375 -0.078125,-0.125 -0.15625,-0.125 -0.21875,-0.015625 -0.46875,-0.09375 -0.46875,-0.34375 0,-0.125 0.0625,-0.234375 0.140625,-0.375 l 0.765625,-1.265625 h 2.5 c 0.015625,0.203125 0.15625,1.5625 0.15625,1.65625 0,0.296875 -0.515625,0.328125 -0.71875,0.328125 C 4.59375,-0.3125 4.5,-0.3125 4.5,-0.109375 4.5,0 4.609375,0 4.640625,0 5.046875,0 5.46875,-0.03125 5.875,-0.03125 6.125,-0.03125 6.765625,0 7.015625,0 7.0625,0 7.1875,0 7.1875,-0.203125 7.1875,-0.3125 7.09375,-0.3125 6.953125,-0.3125 6.34375,-0.3125 6.34375,-0.375 6.3125,-0.671875 l -0.609375,-6.21875 c -0.015625,-0.203125 -0.015625,-0.25 -0.1875,-0.25 -0.15625,0 -0.203125,0.078125 -0.265625,0.171875 z M 2.984375,-2.609375 4.9375,-5.90625 5.265625,-2.609375 Z m 0,0"
           id="path3663" />
      </symbol>
      <symbol
         overflow="visible"
         id="symbol2421">
        <path
           style="stroke:none"
           d=""
           id="path6036" />
      </symbol>
      <symbol
         overflow="visible"
         id="symbol7650">
        <path
           style="stroke:none"
           d="m 2.328125,-4.4375 c 0,-0.1875 0,-0.1875 -0.203125,-0.1875 -0.453125,0.4375 -1.078125,0.4375 -1.359375,0.4375 v 0.25 c 0.15625,0 0.625,0 1,-0.1875 v 3.546875 c 0,0.234375 0,0.328125 -0.6875,0.328125 H 0.8125 V 0 c 0.125,0 0.984375,-0.03125 1.234375,-0.03125 0.21875,0 1.09375,0.03125 1.25,0.03125 V -0.25 H 3.03125 c -0.703125,0 -0.703125,-0.09375 -0.703125,-0.328125 z m 0,0"
           id="path1660" />
      </symbol>
      <symbol
         overflow="visible"
         id="symbol6748">
        <path
           style="stroke:none"
           d="m 1.90625,-2.328125 c 0.546875,0 0.9375,0.375 0.9375,1.125 0,0.859375 -0.515625,1.125 -0.90625,1.125 -0.28125,0 -0.90625,-0.078125 -1.1875,-0.5 0.328125,0 0.40625,-0.234375 0.40625,-0.390625 0,-0.21875 -0.171875,-0.375 -0.390625,-0.375 -0.1875,0 -0.390625,0.125 -0.390625,0.40625 0,0.65625 0.71875,1.078125 1.5625,1.078125 0.96875,0 1.640625,-0.65625 1.640625,-1.34375 0,-0.546875 -0.4375,-1.09375 -1.203125,-1.25 0.71875,-0.265625 0.984375,-0.78125 0.984375,-1.21875 0,-0.546875 -0.625,-0.953125 -1.40625,-0.953125 -0.765625,0 -1.359375,0.375 -1.359375,0.9375 0,0.234375 0.15625,0.359375 0.359375,0.359375 0.21875,0 0.359375,-0.15625 0.359375,-0.34375 0,-0.203125 -0.140625,-0.359375 -0.359375,-0.375 0.25,-0.296875 0.71875,-0.375 0.984375,-0.375 0.3125,0 0.75,0.15625 0.75,0.75 0,0.296875 -0.09375,0.625 -0.28125,0.828125 -0.21875,0.265625 -0.421875,0.28125 -0.765625,0.3125 -0.171875,0.015625 -0.1875,0.015625 -0.21875,0.015625 -0.015625,0 -0.078125,0.015625 -0.078125,0.09375 0,0.09375 0.0625,0.09375 0.1875,0.09375 z m 0,0"
           id="path9127" />
      </symbol>
      <symbol
         overflow="visible"
         id="symbol6310">
        <path
           style="stroke:none"
           d="M 3.515625,-1.265625 H 3.28125 c -0.015625,0.15625 -0.09375,0.5625 -0.1875,0.625 C 3.046875,-0.59375 2.515625,-0.59375 2.40625,-0.59375 H 1.125 c 0.734375,-0.640625 0.984375,-0.84375 1.390625,-1.171875 0.515625,-0.40625 1,-0.84375 1,-1.5 0,-0.84375 -0.734375,-1.359375 -1.625,-1.359375 -0.859375,0 -1.453125,0.609375 -1.453125,1.25 0,0.34375 0.296875,0.390625 0.375,0.390625 0.15625,0 0.359375,-0.125 0.359375,-0.375 0,-0.125 -0.046875,-0.375 -0.40625,-0.375 C 0.984375,-4.21875 1.453125,-4.375 1.78125,-4.375 c 0.703125,0 1.0625,0.546875 1.0625,1.109375 0,0.609375 -0.4375,1.078125 -0.65625,1.328125 L 0.515625,-0.265625 C 0.4375,-0.203125 0.4375,-0.1875 0.4375,0 h 2.875 z m 0,0"
           id="path2735" />
      </symbol>
      <symbol
         overflow="visible"
         id="symbol2470">
        <path
           style="stroke:none"
           d=""
           id="path8788" />
      </symbol>
      <symbol
         overflow="visible"
         id="symbol2118">
        <path
           style="stroke:none"
           d="m 6.84375,-3.265625 c 0.15625,0 0.34375,0 0.34375,-0.1875 C 7.1875,-3.65625 7,-3.65625 6.859375,-3.65625 h -5.96875 c -0.140625,0 -0.328125,0 -0.328125,0.203125 0,0.1875 0.1875,0.1875 0.328125,0.1875 z m 0.015625,1.9375 c 0.140625,0 0.328125,0 0.328125,-0.203125 0,-0.1875 -0.1875,-0.1875 -0.34375,-0.1875 H 0.890625 c -0.140625,0 -0.328125,0 -0.328125,0.1875 0,0.203125 0.1875,0.203125 0.328125,0.203125 z m 0,0"
           id="path7693" />
      </symbol>
    </g>
  </defs>
  <g
     inkscape:label="Layer 1"
     inkscape:groupmode="layer"
     id="layer1"
     transform="translate(-21.056995,-5.0958176)">
    <rect
       style="fill:#ffffff;stroke-width:0.600001"
       id="rect2560"
       width="164.97766"
       height="38.453827"
       x="21.056995"
       y="5.0958176" />
    <g
       inkscape:label=""
       transform="translate(-202.338,-93.361984)"
       id="g2322">
      <g
         id="g2690">
        <g
           style="fill:#000000;fill-opacity:1"
           id="g671">
          <use
             xlink:href="#symbol670"
             x="251.82201"
             y="105.873"
             id="use6610"
             width="100%"
             height="100%" />
          <use
             xlink:href="#symbol8797"
             x="257.05237"
             y="105.873"
             id="use9015"
             width="100%"
             height="100%" />
          <use
             xlink:href="#symbol670"
             x="262.28271"
             y="105.873"
             id="use9545"
             width="100%"
             height="100%" />
          <use
             xlink:href="#symbol3992"
             x="267.51309"
             y="105.873"
             id="use1675"
             width="100%"
             height="100%" />
          <use
             xlink:href="#symbol670"
             x="272.74347"
             y="105.873"
             id="use9424"
             width="100%"
             height="100%" />
          <use
             xlink:href="#symbol3992"
             x="277.97382"
             y="105.873"
             id="use2011"
             width="100%"
             height="100%" />
        </g>
        <g
           style="fill:#000000;fill-opacity:1"
           id="g3819">
          <use
             xlink:href="#symbol670"
             x="304.12564"
             y="105.873"
             id="use1518"
             width="100%"
             height="100%" />
          <use
             xlink:href="#symbol8797"
             x="309.35602"
             y="105.873"
             id="use4358"
             width="100%"
             height="100%" />
          <use
             xlink:href="#symbol670"
             x="314.58636"
             y="105.873"
             id="use5305"
             width="100%"
             height="100%" />
          <use
             xlink:href="#symbol3992"
             x="319.81674"
             y="105.873"
             id="use7632"
             width="100%"
             height="100%" />
          <use
             xlink:href="#symbol670"
             x="325.04712"
             y="105.873"
             id="use5896"
             width="100%"
             height="100%" />
          <use
             xlink:href="#symbol3992"
             x="330.27747"
             y="105.873"
             id="use4900"
             width="100%"
             height="100%" />
        </g>
        <g
           style="fill:#000000;fill-opacity:1"
           id="g5839">
          <use
             xlink:href="#symbol670"
             x="356.42929"
             y="105.873"
             id="use7495"
             width="100%"
             height="100%" />
          <use
             xlink:href="#symbol8797"
             x="361.65967"
             y="105.873"
             id="use4941"
             width="100%"
             height="100%" />
          <use
             xlink:href="#symbol670"
             x="366.89005"
             y="105.873"
             id="use7166"
             width="100%"
             height="100%" />
          <use
             xlink:href="#symbol3992"
             x="372.12039"
             y="105.873"
             id="use9305"
             width="100%"
             height="100%" />
          <use
             xlink:href="#symbol670"
             x="377.35077"
             y="105.873"
             id="use5625"
             width="100%"
             height="100%" />
          <use
             xlink:href="#symbol3992"
             x="382.58112"
             y="105.873"
             id="use8771"
             width="100%"
             height="100%" />
        </g>
        <g
           style="fill:#000000;fill-opacity:1"
           id="g8650">
          <use
             xlink:href="#symbol5643"
             x="224.189"
             y="120.817"
             id="use4698"
             width="100%"
             height="100%" />
        </g>
        <g
           style="fill:#000000;fill-opacity:1"
           id="g4806">
          <use
             xlink:href="#symbol7650"
             x="231.661"
             y="122.312"
             id="use6335"
             width="100%"
             height="100%" />
          <use
             xlink:href="#symbol6748"
             x="235.63258"
             y="122.312"
             id="use8485"
             width="100%"
             height="100%" />
          <use
             xlink:href="#symbol6310"
             x="239.60416"
             y="122.312"
             id="use265"
             width="100%"
             height="100%" />
        </g>
        <g
           style="fill:#000000;fill-opacity:1"
           id="g3450">
          <use
             xlink:href="#symbol2118"
             x="244.073"
             y="120.817"
             id="use5590"
             width="100%"
             height="100%" />
        </g>
        <g
           style="fill:#000000;fill-opacity:1"
           id="g1762">
          <use
             xlink:href="#symbol505"
             x="251.82201"
             y="120.817"
             id="use9521"
             width="100%"
             height="100%" />
          <use
             xlink:href="#symbol505"
             x="257.05237"
             y="120.817"
             id="use3683"
             width="100%"
             height="100%" />
          <use
             xlink:href="#symbol670"
             x="262.28271"
             y="120.817"
             id="use2402"
             width="100%"
             height="100%" />
          <use
             xlink:href="#symbol3992"
             x="267.51309"
             y="120.817"
             id="use9904"
             width="100%"
             height="100%" />
          <use
             xlink:href="#symbol670"
             x="272.74347"
             y="120.817"
             id="use5938"
             width="100%"
             height="100%" />
          <use
             xlink:href="#symbol505"
             x="277.97382"
             y="120.817"
             id="use4891"
             width="100%"
             height="100%" />
        </g>
        <g
           style="fill:#000000;fill-opacity:1"
           id="g7982">
          <use
             xlink:href="#symbol3314"
             x="288.43454"
             y="120.817"
             id="use287"
             width="100%"
             height="100%" />
          <use
             xlink:href="#symbol7184"
             x="293.66492"
             y="120.817"
             id="use2068"
             width="100%"
             height="100%" />
        </g>
        <g
           style="fill:#000000;fill-opacity:1"
           id="g2314">
          <use
             xlink:href="#symbol505"
             x="304.12564"
             y="120.817"
             id="use4045"
             width="100%"
             height="100%" />
          <use
             xlink:href="#symbol670"
             x="309.35602"
             y="120.817"
             id="use3343"
             width="100%"
             height="100%" />
          <use
             xlink:href="#symbol505"
             x="314.58636"
             y="120.817"
             id="use8208"
             width="100%"
             height="100%" />
          <use
             xlink:href="#symbol3992"
             x="319.81674"
             y="120.817"
             id="use4265"
             width="100%"
             height="100%" />
          <use
             xlink:href="#symbol670"
             x="325.04712"
             y="120.817"
             id="use4694"
             width="100%"
             height="100%" />
          <use
             xlink:href="#symbol505"
             x="330.27747"
             y="120.817"
             id="use4955"
             width="100%"
             height="100%" />
        </g>
        <g
           style="fill:#000000;fill-opacity:1"
           id="g7482">
          <use
             xlink:href="#symbol3314"
             x="340.73822"
             y="120.817"
             id="use2383"
             width="100%"
             height="100%" />
          <use
             xlink:href="#symbol7184"
             x="345.96857"
             y="120.817"
             id="use2290"
             width="100%"
             height="100%" />
        </g>
        <g
           style="fill:#000000;fill-opacity:1"
           id="g5024">
          <use
             xlink:href="#symbol670"
             x="356.42929"
             y="120.817"
             id="use7648"
             width="100%"
             height="100%" />
          <use
             xlink:href="#symbol505"
             x="361.65967"
             y="120.817"
             id="use5958"
             width="100%"
             height="100%" />
          <use
             xlink:href="#symbol505"
             x="366.89005"
             y="120.817"
             id="use6471"
             width="100%"
             height="100%" />
          <use
             xlink:href="#symbol3992"
             x="372.12039"
             y="120.817"
             id="use9980"
             width="100%"
             height="100%" />
          <use
             xlink:href="#symbol670"
             x="377.35077"
             y="120.817"
             id="use8244"
             width="100%"
             height="100%" />
          <use
             xlink:href="#symbol505"
             x="382.58112"
             y="120.817"
             id="use8347"
             width="100%"
             height="100%" />
        </g>
        <g
           style="fill:#000000;fill-opacity:1"
           id="g658">
          <use
             xlink:href="#symbol1725"
             x="251.82201"
             y="135.761"
             id="use9684"
             width="100%"
             height="100%" />
          <use
             xlink:href="#symbol8797"
             x="257.05237"
             y="135.761"
             id="use3319"
             width="100%"
             height="100%" />
          <use
             xlink:href="#symbol3229"
             x="262.28271"
             y="135.761"
             id="use9685"
             width="100%"
             height="100%" />
          <use
             xlink:href="#symbol3992"
             x="267.51309"
             y="135.761"
             id="use6190"
             width="100%"
             height="100%" />
          <use
             xlink:href="#symbol670"
             x="272.74347"
             y="135.761"
             id="use5211"
             width="100%"
             height="100%" />
          <use
             xlink:href="#symbol3229"
             x="277.97382"
             y="135.761"
             id="use8809"
             width="100%"
             height="100%" />
        </g>
        <g
           style="fill:#000000;fill-opacity:1"
           id="g8127">
          <use
             xlink:href="#symbol1725"
             x="304.12564"
             y="135.761"
             id="use5764"
             width="100%"
             height="100%" />
          <use
             xlink:href="#symbol8797"
             x="309.35602"
             y="135.761"
             id="use7440"
             width="100%"
             height="100%" />
          <use
             xlink:href="#symbol3229"
             x="314.58636"
             y="135.761"
             id="use2634"
             width="100%"
             height="100%" />
          <use
             xlink:href="#symbol3992"
             x="319.81674"
             y="135.761"
             id="use5636"
             width="100%"
             height="100%" />
          <use
             xlink:href="#symbol670"
             x="325.04712"
             y="135.761"
             id="use2092"
             width="100%"
             height="100%" />
          <use
             xlink:href="#symbol3229"
             x="330.27747"
             y="135.761"
             id="use5035"
             width="100%"
             height="100%" />
        </g>
        <g
           style="fill:#000000;fill-opacity:1"
           id="g1803">
          <use
             xlink:href="#symbol1725"
             x="356.42929"
             y="135.761"
             id="use6842"
             width="100%"
             height="100%" />
          <use
             xlink:href="#symbol8797"
             x="361.65967"
             y="135.761"
             id="use1695"
             width="100%"
             height="100%" />
          <use
             xlink:href="#symbol3229"
             x="366.89005"
             y="135.761"
             id="use7368"
             width="100%"
             height="100%" />
          <use
             xlink:href="#symbol3992"
             x="372.12039"
             y="135.761"
             id="use6672"
             width="100%"
             height="100%" />
          <use
             xlink:href="#symbol670"
             x="377.35077"
             y="135.761"
             id="use3815"
             width="100%"
             height="100%" />
          <use
             xlink:href="#symbol3229"
             x="382.58112"
             y="135.761"
             id="use9742"
             width="100%"
             height="100%" />
        </g>
      </g>
    </g>
  </g>
</svg>
