<?xml version="1.0" encoding="UTF-8" standalone="no"?>
<!-- Created with Inkscape (http://www.inkscape.org/) -->

<svg
   width="161.44391mm"
   height="154.09947mm"
   viewBox="0 0 161.44391 154.09947"
   version="1.1"
   id="svg12615"
   inkscape:version="1.2 (1:1.2.1+202207142221+cd75a1ee6d)"
   sodipodi:docname="favicon.svg"
   xmlns:inkscape="http://www.inkscape.org/namespaces/inkscape"
   xmlns:sodipodi="http://sodipodi.sourceforge.net/DTD/sodipodi-0.dtd"
   xmlns="http://www.w3.org/2000/svg"
   xmlns:svg="http://www.w3.org/2000/svg">
  <sodipodi:namedview
     id="namedview12617"
     pagecolor="#ffffff"
     bordercolor="#666666"
     borderopacity="1.0"
     inkscape:showpageshadow="2"
     inkscape:pageopacity="0.0"
     inkscape:pagecheckerboard="0"
     inkscape:deskcolor="#d1d1d1"
     inkscape:document-units="mm"
     showgrid="false"
     inkscape:zoom="0.80265853"
     inkscape:cx="365.03692"
     inkscape:cy="305.23565"
     inkscape:window-width="1920"
     inkscape:window-height="1043"
     inkscape:window-x="1920"
     inkscape:window-y="0"
     inkscape:window-maximized="1"
     inkscape:current-layer="layer1" />
  <defs
     id="defs12612">
    <linearGradient
       id="linearGradient3236">
      <stop
         style="stop-color:#ffffff;stop-opacity:1;"
         offset="0"
         id="stop3238" />
      <stop
         style="stop-color:#99a1bf;stop-opacity:1;"
         offset="1"
         id="stop3240" />
    </linearGradient>
  </defs>
  <g
     inkscape:label="Layer 1"
     inkscape:groupmode="layer"
     id="layer1"
     transform="translate(-54.427872,-27.44416)">
    <ellipse
       style="display:inline;fill:#003592;fill-opacity:1;stroke-width:2"
       id="path11539"
       cx="135.14983"
       cy="104.4939"
       rx="80.721954"
       ry="77.049736" />
    <path
       id="path3239"
       style="display:inline;overflow:visible;visibility:visible;fill:#ffffff;fill-opacity:1;fill-rule:nonzero;stroke:none;stroke-width:3.48832;stroke-linecap:butt;stroke-linejoin:miter;stroke-miterlimit:10;stroke-dashoffset:0;stroke-opacity:1;marker:none;marker-start:none;marker-mid:none;marker-end:none;enable-background:accumulate"
       d="m 85.587894,55.319444 -0.323276,2.182106 h 0.767779 c 2.626606,0 3.19234,0.202049 3.19234,1.091055 0,0.363683 -0.161636,1.212281 -0.525322,2.545789 L 83.971517,78.67607 c -0.727368,2.747835 -0.727368,2.747838 -1.050644,3.071111 -0.444503,0.404095 -1.41433,0.565732 -3.111521,0.565732 h -0.161637 l -0.282866,2.182106 h 16.891122 c 3.151928,0 6.263459,-0.525322 8.485969,-1.454737 2.62661,-1.050645 4.24298,-3.556029 4.24298,-6.425092 0,-3.79848 -2.54579,-6.061411 -7.83942,-6.990826 5.98059,-0.686959 9.33457,-3.353982 9.33457,-7.394916 0,-2.343743 -1.13146,-4.323805 -3.11152,-5.495676 -1.53555,-0.929415 -4.24299,-1.414328 -7.556556,-1.414328 h -14.2241 m 8.243512,13.133049 2.303335,-8.52638 c 0.525322,-1.980057 0.969828,-2.424563 2.424562,-2.424563 h 0.606142 c 2.505375,0 3.919705,1.45474 3.919705,4.081349 0,2.42456 -1.05064,4.647078 -2.78824,5.81895 -1.212284,0.808188 -2.343749,1.050644 -5.212813,1.050644 h -1.252691 m -0.56573,2.182106 h 2.02047 c 2.707425,0 3.475206,0.161637 4.485438,0.848598 1.010236,0.727372 1.495146,1.858836 1.495146,3.596436 0,2.343743 -0.8486,4.566262 -2.262921,5.738133 -1.131465,0.969825 -2.869071,1.495147 -4.970354,1.495147 h -1.333511 c -1.454735,0 -2.141696,-0.363686 -2.141696,-1.212281 0,-0.282866 0.08082,-0.686959 0.323273,-1.535557 l 2.384155,-8.930476 M 115.31036,90.2616 h 21.66283 c 0.72258,0 1.3043,0.58172 1.3043,1.304308 v 2.608609 c 0,0.722588 -0.58172,1.304309 -1.3043,1.304309 h -21.66283 c -0.72258,0 -1.3043,-0.581721 -1.3043,-1.304309 v -2.608609 c 0,-0.722588 0.58172,-1.304308 1.3043,-1.304308 z m 58.95198,63.30138 0.31035,-2.09481 h -0.85346 c -2.52153,0 -3.06464,-0.19397 -3.06464,-1.04741 0,-0.31035 0,-0.31035 0.54311,-2.44395 l 4.49998,-16.83618 c 0.69828,-2.67671 0.69828,-2.67671 1.0474,-2.94827 0.38793,-0.38793 1.31898,-0.5431 2.94828,-0.5431 h 0.27154 l 0.27157,-2.09482 h -14.4698 l -0.31035,2.09482 h 0.85346 c 2.52154,0 3.06465,0.19397 3.06465,1.04741 0,0.34914 -0.15518,1.125 -0.54311,2.44396 l -4.49998,16.83618 c -0.69829,2.63792 -0.69829,2.63792 -1.04741,2.94825 -0.38793,0.38793 -1.31898,0.54311 -2.94828,0.54311 h -0.27154 l -0.27157,2.09481 h 14.4698 m -48.53355,-46.70791 c -1.94612,0 -3.68858,1.01832 -5.22736,3.10021 -1.4709,1.99137 -2.3987,4.88792 -2.3987,7.51291 0,3.43964 1.78771,5.67994 4.52585,5.67994 4.00537,0 7.51291,-4.91055 7.51291,-10.56786 0,-3.4849 -1.71983,-5.7252 -4.4127,-5.7252 m -0.11315,1.10883 c 0.74676,0 1.19935,0.70151 1.19935,1.90086 0,1.74245 -0.70151,5.63469 -1.49353,8.21442 -0.88254,2.89654 -1.58405,3.91486 -2.64762,3.91486 -0.79203,0 -1.28987,-0.61099 -1.28987,-1.60668 0,-1.56141 0.70151,-5.49891 1.44827,-8.19178 0.79203,-2.80603 1.71982,-4.23168 2.7834,-4.23168 m 25.23332,-21.684417 h -0.92779 c -1.01832,0.769395 -3.9375,1.53879 -6.22305,1.629307 l -0.29416,1.131464 h 2.03663 c 0.76938,0 1.0183,0.135773 1.0183,0.588359 0,0.203663 -0.0225,0.339439 -0.18103,0.859912 l -2.26293,8.531227 c -0.42994,1.561418 -0.42994,1.561418 -0.61097,1.719828 -0.2263,0.22629 -0.76941,0.31681 -1.71984,0.31681 h -1.15409 l -0.18103,1.22198 h 9.54955 l 0.15841,-1.22198 h -1.13147 c -1.47089,0 -1.78771,-0.11315 -1.78771,-0.61099 0,-0.20367 0.11314,-0.70151 0.29417,-1.425648 l 3.41701,-12.740269 m 35.98561,-17.563367 c 5.08572,-0.04108 5.82684,7.222072 0.0241,7.417652 -0.50962,0.03518 -10.86461,1.465723 -13.50434,1.792626 -1.50103,0.158909 -2.9928,0.389287 -4.48966,0.581292 -1.83716,0.25263 -3.67585,0.494102 -5.51069,0.763696 -2.712,0.381384 -5.41872,0.800161 -8.11908,1.256808 -3.27694,0.563107 -6.55447,1.130985 -9.80593,1.829009 -2.75633,0.607571 -5.51136,1.234861 -8.21725,2.042313 -1.65573,0.508924 -3.30427,1.046335 -4.92257,1.665386 -2.08784,0.849712 -4.15165,1.796883 -6.03164,3.050749 -2.60606,1.687364 -4.89606,3.867192 -6.68642,6.404932 -1.14258,1.584341 -2.06299,3.320365 -2.80039,5.127121 -0.68421,1.6957 -1.26339,3.43364 -1.75601,5.19432 -0.78426,3.00994 -1.4186,6.05921 -1.89206,9.13362 -0.38818,2.44453 -0.72254,4.89729 -1.01785,7.35468 -0.17094,1.53094 -0.30935,3.0654 -0.46987,4.59745 -0.2994,2.88805 -0.53582,5.78208 -0.7431,8.67807 -0.11901,1.81362 -0.2844,3.62403 -0.37165,5.43976 -0.13078,2.82829 -1.03898,9.38995 -1.11489,12.22076 -0.55709,4.91596 -7.50625,3.59963 -7.41764,0.29662 0.0886,-3.303 0.35888,-6.59723 0.51151,-9.89727 0.10179,-2.11854 0.29475,-4.23095 0.43363,-6.34709 0.24187,-3.37899 0.51771,-6.75576 0.86705,-10.1255 0.18731,-1.78763 0.34881,-3.57802 0.54823,-5.36431 0.34457,-2.8673 0.7347,-5.72914 1.18763,-8.58141 0.55243,-3.58722 1.29257,-7.1451 2.20766,-10.65713 0.57478,-2.05434 1.25057,-4.08218 2.0489,-6.060694 0.86038,-2.108139 1.93434,-4.133728 3.26748,-5.982322 2.08901,-2.961044 4.76095,-5.504465 7.80172,-7.473264 2.19357,-1.463017 4.60162,-2.568139 7.03771,-3.559585 1.88819,-0.722313 3.81172,-1.349362 5.74365,-1.943169 3.15718,-0.942168 6.37177,-1.674061 9.58785,-2.382999 3.79381,-0.814448 7.61799,-1.477047 11.44154,-2.13405 3.15079,-0.532842 6.30896,-1.021445 9.47332,-1.466466 2.14085,-0.314534 4.28625,-0.596323 6.42988,-0.891072 1.74649,-0.22403 3.4871,-0.492858 5.23851,-0.67827 3.08002,-0.381402 10.42599,-1.261187 11.02061,-1.302263 z m -49.87521,41.841334 h 18.28018 c 0.7226,0 1.30431,0.58172 1.30431,1.3043 v 2.60862 c 0,0.72258 -0.58171,1.3043 -1.30431,1.3043 h -18.28018 c -0.72259,0 -1.30431,-0.58172 -1.30431,-1.3043 v -2.60862 c 0,-0.72258 0.58172,-1.3043 1.30431,-1.3043 z m -51.16807,29.71424 c -5.085731,0.0411 -5.82685,-7.22207 -0.02416,-7.41765 0.50959,-0.0352 10.864607,-1.46573 13.504315,-1.79263 1.501045,-0.15891 2.992825,-0.38928 4.489665,-0.58129 1.83716,-0.25263 3.67587,-0.49411 5.5107,-0.7637 2.71199,-0.38138 5.41872,-0.80016 8.11909,-1.25681 3.27694,-0.56311 6.55446,-1.13099 9.80592,-1.82901 2.75632,-0.60757 5.51136,-1.23486 8.21725,-2.04231 1.65573,-0.50893 3.30427,-1.04634 4.92257,-1.66539 2.08784,-0.84971 4.15166,-1.79688 6.03163,-3.05075 2.60607,-1.68736 4.89606,-3.86719 6.68642,-6.40493 1.1426,-1.58434 2.06301,-3.32036 2.8004,-5.12712 0.68421,-1.69569 1.26339,-3.43364 1.75601,-5.19432 0.78426,-3.00994 1.41859,-6.059214 1.89207,-9.133622 0.38817,-2.44453 0.72252,-4.897289 1.01785,-7.354676 0.17092,-1.530945 0.30935,-3.065396 0.46987,-4.597452 0.29938,-2.888049 0.53581,-5.782085 0.74308,-8.678058 0.11901,-1.813616 0.2844,-3.624043 0.37166,-5.439765 0.13079,-2.828287 1.03897,-9.389978 1.11488,-12.220768 0.55711,-4.915956 7.50625,-3.599643 7.41765,-0.296638 -0.0886,3.303003 -0.35889,6.597238 -0.5115,9.897277 -0.10181,2.118545 -0.29477,4.230949 -0.43365,6.347105 -0.24186,3.378994 -0.51771,6.755771 -0.86704,10.125499 -0.1873,1.78763 -0.3488,3.578021 -0.54824,5.364308 -0.34457,2.8673 -0.7347,5.729139 -1.18761,8.581411 -0.55245,3.587218 -1.29257,7.145099 -2.20768,10.657129 -0.57479,2.05435 -1.25056,4.08218 -2.04888,6.06069 -0.8604,2.10814 -1.93435,4.13373 -3.2675,5.98233 -2.08899,2.96104 -4.76094,5.50446 -7.80172,7.47326 -2.19355,1.46302 -4.60161,2.56814 -7.0377,3.55958 -1.88819,0.72232 -3.81172,1.34937 -5.74365,1.94317 -3.15718,0.94218 -6.37177,1.67407 -9.58784,2.383 -3.79381,0.81444 -7.618,1.47706 -11.44154,2.13405 -3.1508,0.53284 -6.30897,1.02145 -9.47334,1.46648 -2.14084,0.31454 -4.28625,0.59632 -6.42986,0.89106 -1.74651,0.22402 -3.487128,0.49287 -5.238521,0.67826 -3.080009,0.3814 -10.425994,1.26119 -11.020602,1.30228 z" />
  </g>
</svg>
