<?xml version="1.0" encoding="UTF-8" standalone="no"?>
<!-- Created with Inkscape (http://www.inkscape.org/) -->

<svg
   width="17.681047mm"
   height="25.146626mm"
   viewBox="0 0 17.681047 25.146626"
   version="1.1"
   id="svg1082"
   sodipodi:docname="sheet12-exercise1-a-formula.svg"
   inkscape:version="1.1.1 (1:1.1+202109281949+c3084ef5ed)"
   xmlns:inkscape="http://www.inkscape.org/namespaces/inkscape"
   xmlns:sodipodi="http://sodipodi.sourceforge.net/DTD/sodipodi-0.dtd"
   xmlns:xlink="http://www.w3.org/1999/xlink"
   xmlns="http://www.w3.org/2000/svg"
   xmlns:svg="http://www.w3.org/2000/svg">
  <sodipodi:namedview
     id="namedview1084"
     pagecolor="#ffffff"
     bordercolor="#666666"
     borderopacity="1.0"
     inkscape:pageshadow="2"
     inkscape:pageopacity="0.0"
     inkscape:pagecheckerboard="0"
     inkscape:document-units="mm"
     showgrid="false"
     inkscape:zoom="3.0075196"
     inkscape:cx="113.54872"
     inkscape:cy="100.24872"
     inkscape:window-width="1848"
     inkscape:window-height="1016"
     inkscape:window-x="1992"
     inkscape:window-y="27"
     inkscape:window-maximized="1"
     inkscape:current-layer="layer1"
     fit-margin-top="0"
     fit-margin-left="0"
     fit-margin-right="0"
     fit-margin-bottom="0" />
  <defs
     id="defs1079">
    <g
       id="g2950">
      <symbol
         overflow="visible"
         id="symbol8025">
        <path
           style="stroke:none"
           d=""
           id="path7251" />
      </symbol>
      <symbol
         overflow="visible"
         id="symbol9537">
        <path
           style="stroke:none"
           d="m 6.984375,23.421875 c 0,-0.04687 -0.03125,-0.0625 -0.046875,-0.09375 -0.375,-0.375 -1.03125,-1.03125 -1.703125,-2.109375 C 3.625,18.640625 2.90625,15.40625 2.90625,11.5625 c 0,-2.6875 0.359375,-6.140625 2,-9.109375 C 5.6875,1.03125 6.515625,0.21875 6.953125,-0.21875 c 0.03125,-0.03125 0.03125,-0.046875 0.03125,-0.078125 0,-0.109375 -0.078125,-0.109375 -0.21875,-0.109375 -0.140625,0 -0.15625,0 -0.3125,0.15625 -3.328125,3.046875 -4.375,7.609375 -4.375,11.796875 0,3.921875 0.890625,7.875 3.421875,10.859375 0.203125,0.21875 0.578125,0.625 0.984375,0.984375 0.125,0.125 0.140625,0.125 0.28125,0.125 0.140625,0 0.21875,0 0.21875,-0.09375 z m 0,0"
           id="path7608" />
      </symbol>
      <symbol
         overflow="visible"
         id="symbol8957">
        <path
           style="stroke:none"
           d="M 5.25,11.5625 C 5.25,7.640625 4.359375,3.703125 1.828125,0.71875 1.625,0.484375 1.25,0.078125 0.84375,-0.28125 c -0.125,-0.125 -0.140625,-0.125 -0.28125,-0.125 -0.125,0 -0.21875,0 -0.21875,0.109375 0,0.03125 0.046875,0.078125 0.0625,0.09375 0.34375,0.359375 1.015625,1.03125 1.6875,2.109375 1.609375,2.5625 2.328125,5.8125 2.328125,9.640625 0,2.6875 -0.359375,6.140625 -2,9.125 -0.78125,1.40625 -1.609375,2.234375 -2.03125,2.65625 -0.015625,0.03125 -0.046875,0.0625 -0.046875,0.09375 0,0.09375 0.09375,0.09375 0.21875,0.09375 0.140625,0 0.15625,0 0.3125,-0.15625 C 4.203125,20.328125 5.25,15.765625 5.25,11.5625 Z m 0,0"
           id="path4135" />
      </symbol>
      <symbol
         overflow="visible"
         id="symbol2049">
        <path
           style="stroke:none"
           d=""
           id="path1731" />
      </symbol>
      <symbol
         overflow="visible"
         id="symbol4441">
        <path
           style="stroke:none"
           d="m 0.875,-0.59375 c -0.03125,0.15625 -0.09375,0.390625 -0.09375,0.4375 0,0.171875 0.140625,0.265625 0.296875,0.265625 0.125,0 0.296875,-0.078125 0.375,-0.28125 0,-0.015625 0.125,-0.484375 0.1875,-0.734375 l 0.21875,-0.890625 C 1.90625,-2.03125 1.96875,-2.25 2.03125,-2.46875 c 0.03125,-0.171875 0.109375,-0.46875 0.125,-0.5 0.140625,-0.3125 0.671875,-1.21875 1.625,-1.21875 0.453125,0 0.53125,0.375 0.53125,0.703125 0,0.609375 -0.484375,1.890625 -0.640625,2.3125 C 3.578125,-0.9375 3.5625,-0.8125 3.5625,-0.703125 c 0,0.46875 0.359375,0.8125 0.828125,0.8125 0.9375,0 1.296875,-1.453125 1.296875,-1.53125 0,-0.109375 -0.078125,-0.109375 -0.109375,-0.109375 -0.109375,0 -0.109375,0.03125 -0.15625,0.1875 -0.203125,0.671875 -0.53125,1.234375 -1.015625,1.234375 -0.171875,0 -0.234375,-0.09375 -0.234375,-0.328125 0,-0.25 0.078125,-0.484375 0.171875,-0.703125 0.1875,-0.53125 0.609375,-1.625 0.609375,-2.203125 0,-0.65625 -0.421875,-1.0625 -1.140625,-1.0625 -0.90625,0 -1.390625,0.640625 -1.5625,0.875 -0.046875,-0.5625 -0.453125,-0.875 -0.921875,-0.875 -0.453125,0 -0.640625,0.390625 -0.734375,0.5625 C 0.421875,-3.5 0.296875,-2.90625 0.296875,-2.875 c 0,0.109375 0.09375,0.109375 0.109375,0.109375 0.109375,0 0.109375,-0.015625 0.171875,-0.234375 0.171875,-0.703125 0.375,-1.1875 0.734375,-1.1875 0.1875,0 0.296875,0.125 0.296875,0.453125 0,0.21875 -0.03125,0.328125 -0.15625,0.84375 z m 0,0"
           id="path6933" />
      </symbol>
      <symbol
         overflow="visible"
         id="symbol7412">
        <path
           style="stroke:none"
           d=""
           id="path5547" />
      </symbol>
      <symbol
         overflow="visible"
         id="symbol1857">
        <path
           style="stroke:none"
           d="m 2.9375,-1.640625 v 0.859375 c 0,0.359375 -0.03125,0.46875 -0.765625,0.46875 H 1.96875 V 0 C 2.375,-0.03125 2.890625,-0.03125 3.3125,-0.03125 c 0.421875,0 0.9375,0 1.359375,0.03125 v -0.3125 h -0.21875 c -0.734375,0 -0.75,-0.109375 -0.75,-0.46875 V -1.640625 H 4.6875 v -0.3125 H 3.703125 v -4.53125 c 0,-0.203125 0,-0.265625 -0.171875,-0.265625 -0.078125,0 -0.109375,0 -0.1875,0.125 l -3.0625,4.671875 v 0.3125 z m 0.046875,-0.3125 H 0.5625 l 2.421875,-3.71875 z m 0,0"
           id="path7144" />
      </symbol>
    </g>
  </defs>
  <g
     inkscape:label="Layer 1"
     inkscape:groupmode="layer"
     id="layer1"
     transform="translate(-31.026619,-6.2856903)">
    <rect
       style="fill:#ffffff;stroke-width:1"
       id="rect1242"
       width="17.681047"
       height="25.146626"
       x="31.026619"
       y="6.2856903" />
    <g
       inkscape:label=""
       transform="translate(-62.403723,-65.071754)"
       id="g1173">
      <g
         id="g8780">
        <g
           style="fill:#000000;fill-opacity:1"
           id="g9734">
          <use
             xlink:href="#symbol9537"
             x="91.925003"
             y="72.399002"
             id="use9618"
             width="100%"
             height="100%" />
        </g>
        <g
           style="fill:#000000;fill-opacity:1"
           id="g8408">
          <use
             xlink:href="#symbol4441"
             x="99.259003"
             y="80.369003"
             id="use1678"
             width="100%"
             height="100%" />
        </g>
        <g
           style="fill:#000000;fill-opacity:1"
           id="g3841">
          <use
             xlink:href="#symbol1857"
             x="99.758003"
             y="92.323997"
             id="use8766"
             width="100%"
             height="100%" />
        </g>
        <g
           style="fill:#000000;fill-opacity:1"
           id="g9683">
          <use
             xlink:href="#symbol8957"
             x="105.239"
             y="72.399002"
             id="use8397"
             width="100%"
             height="100%" />
        </g>
      </g>
    </g>
  </g>
</svg>
