<?xml version="1.0" encoding="UTF-8" standalone="no"?>
<!-- Created with Inkscape (http://www.inkscape.org/) -->

<svg
   width="165.45085mm"
   height="39.100525mm"
   viewBox="0 0 165.45085 39.100525"
   version="1.1"
   id="svg3104"
   sodipodi:docname="sheet9-exercise2-alignment-sol2.svg"
   inkscape:version="1.1.1 (1:1.1+202109281949+c3084ef5ed)"
   xmlns:inkscape="http://www.inkscape.org/namespaces/inkscape"
   xmlns:sodipodi="http://sodipodi.sourceforge.net/DTD/sodipodi-0.dtd"
   xmlns:xlink="http://www.w3.org/1999/xlink"
   xmlns="http://www.w3.org/2000/svg"
   xmlns:svg="http://www.w3.org/2000/svg">
  <sodipodi:namedview
     id="namedview3106"
     pagecolor="#ffffff"
     bordercolor="#666666"
     borderopacity="1.0"
     inkscape:pageshadow="2"
     inkscape:pageopacity="0.0"
     inkscape:pagecheckerboard="0"
     inkscape:document-units="mm"
     showgrid="false"
     inkscape:zoom="0.26582969"
     inkscape:cx="-284.01643"
     inkscape:cy="-238.87475"
     inkscape:window-width="1848"
     inkscape:window-height="1016"
     inkscape:window-x="72"
     inkscape:window-y="27"
     inkscape:window-maximized="1"
     inkscape:current-layer="layer1"
     fit-margin-top="0"
     fit-margin-left="0"
     fit-margin-right="0"
     fit-margin-bottom="0" />
  <defs
     id="defs3101">
    <g
       id="g3683">
      <symbol
         overflow="visible"
         id="symbol3763">
        <path
           style="stroke:none"
           d=""
           id="path4728" />
      </symbol>
      <symbol
         overflow="visible"
         id="symbol4801">
        <path
           style="stroke:none"
           d="m 4.828125,-5.796875 c 0,-0.15625 0,-0.40625 -0.296875,-0.40625 -0.1875,0 -0.234375,0.109375 -0.28125,0.171875 -0.015625,0.046875 -0.015625,0.0625 -0.15625,0.3125 C 3.765625,-6 3.3125,-6.203125 2.796875,-6.203125 c -1.28125,0 -2.390625,1.34375 -2.390625,3.15625 0,1.828125 1.109375,3.15625 2.40625,3.15625 1.15625,0 2.015625,-0.890625 2.015625,-1.78125 C 4.828125,-2 4.578125,-2 4.46875,-2 4.390625,-2 4.15625,-2 4.140625,-1.71875 4.0625,-0.734375 3.265625,-0.5 2.84375,-0.5 c -0.90625,0 -1.75,-1.0625 -1.75,-2.546875 0,-1.484375 0.859375,-2.546875 1.75,-2.546875 0.59375,0 1.140625,0.453125 1.28125,1.265625 C 4.15625,-4.15625 4.171875,-4 4.46875,-4 4.828125,-4 4.828125,-4.203125 4.828125,-4.40625 Z m 0,0"
           id="path9433" />
      </symbol>
      <symbol
         overflow="visible"
         id="symbol8165">
        <path
           style="stroke:none"
           d="M 2.953125,-5.484375 H 4.28125 v 0.53125 c 0,0.1875 0,0.40625 0.328125,0.40625 0.359375,0 0.359375,-0.203125 0.359375,-0.40625 V -5.6875 c 0,-0.296875 -0.0625,-0.40625 -0.40625,-0.40625 H 0.671875 c -0.328125,0 -0.40625,0.078125 -0.40625,0.40625 v 0.734375 c 0,0.1875 0,0.40625 0.328125,0.40625 0.359375,0 0.359375,-0.203125 0.359375,-0.40625 v -0.53125 h 1.3125 v 4.875 H 1.75 c -0.140625,0 -0.390625,0 -0.390625,0.296875 C 1.359375,0 1.59375,0 1.75,0 H 3.484375 C 3.625,0 3.875,0 3.875,-0.296875 c 0,-0.3125 -0.234375,-0.3125 -0.390625,-0.3125 h -0.53125 z m 0,0"
           id="path2486" />
      </symbol>
      <symbol
         overflow="visible"
         id="symbol4034">
        <path
           style="stroke:none"
           d="m 3.15625,-5.828125 c -0.09375,-0.375 -0.234375,-0.375 -0.546875,-0.375 -0.28125,0 -0.453125,0 -0.53125,0.375 L 0.875,-0.609375 c -0.140625,0 -0.375,0 -0.4375,0.015625 -0.109375,0.0625 -0.171875,0.171875 -0.171875,0.296875 C 0.265625,0 0.53125,0 0.703125,0 H 1.71875 c 0.171875,0 0.421875,0 0.421875,-0.296875 0,-0.3125 -0.203125,-0.3125 -0.5625,-0.3125 l 0.21875,-1.03125 h 1.625 l 0.234375,1.03125 c -0.359375,0 -0.5625,0 -0.5625,0.3125 C 3.09375,0 3.328125,0 3.515625,0 H 4.53125 c 0.15625,0 0.421875,0 0.421875,-0.296875 0,-0.125 -0.046875,-0.234375 -0.171875,-0.28125 C 4.71875,-0.609375 4.5,-0.609375 4.359375,-0.609375 Z M 2.609375,-5.40625 H 2.625 L 3.265625,-2.25 h -1.3125 z m 0,0"
           id="path9634" />
      </symbol>
      <symbol
         overflow="visible"
         id="symbol3917">
        <path
           style="stroke:none"
           d="m 4.203125,-2.703125 c 0.109375,0 0.46875,0 0.46875,-0.34375 0,-0.359375 -0.359375,-0.359375 -0.46875,-0.359375 H 1.03125 c -0.125,0 -0.46875,0 -0.46875,0.359375 0,0.34375 0.34375,0.34375 0.46875,0.34375 z m 0,0"
           id="path9" />
      </symbol>
      <symbol
         overflow="visible"
         id="symbol7410">
        <path
           style="stroke:none"
           d="m 2.90625,-3.25 1.125,-2.234375 H 4.25 c 0.140625,0 0.40625,0 0.40625,-0.296875 0,-0.3125 -0.265625,-0.3125 -0.40625,-0.3125 H 3.203125 c -0.140625,0 -0.390625,0 -0.390625,0.296875 0,0.3125 0.234375,0.3125 0.453125,0.3125 L 2.5625,-4.03125 1.796875,-5.484375 c 0.203125,0 0.421875,0 0.421875,-0.3125 0,-0.296875 -0.25,-0.296875 -0.390625,-0.296875 H 0.78125 c -0.140625,0 -0.40625,0 -0.40625,0.296875 0,0.3125 0.265625,0.3125 0.40625,0.3125 h 0.234375 l 1.203125,2.25 -1.328125,2.625 h -0.21875 c -0.15625,0 -0.40625,0 -0.40625,0.3125 C 0.265625,0 0.515625,0 0.671875,0 h 1.03125 c 0.15625,0 0.40625,0 0.40625,-0.296875 0,-0.3125 -0.234375,-0.3125 -0.46875,-0.3125 l 0.921875,-1.9375 0.984375,1.9375 c -0.234375,0 -0.453125,0 -0.453125,0.3125 C 3.09375,0 3.34375,0 3.5,0 H 4.53125 C 4.6875,0 4.9375,0 4.9375,-0.296875 c 0,-0.3125 -0.25,-0.3125 -0.40625,-0.3125 H 4.3125 Z m 0,0"
           id="path7174" />
      </symbol>
      <symbol
         overflow="visible"
         id="symbol5909">
        <path
           style="stroke:none"
           d="m 4.65625,-2.15625 c 0,-1.25 -0.921875,-2.234375 -2.046875,-2.234375 -1.109375,0 -2.046875,0.984375 -2.046875,2.234375 0,1.265625 0.953125,2.21875 2.046875,2.21875 1.09375,0 2.046875,-0.953125 2.046875,-2.21875 z M 2.609375,-0.546875 C 1.875,-0.546875 1.25,-1.296875 1.25,-2.21875 c 0,-0.90625 0.65625,-1.5625 1.359375,-1.5625 0.71875,0 1.359375,0.65625 1.359375,1.5625 0,0.921875 -0.625,1.671875 -1.359375,1.671875 z m 0,0"
           id="path9825" />
      </symbol>
      <symbol
         overflow="visible"
         id="symbol9337">
        <path
           style="stroke:none"
           d="M 2.21875,-1.859375 C 2.21875,-2.796875 2.796875,-3.75 4,-3.75 c 0.015625,0.234375 0.1875,0.4375 0.4375,0.4375 0.21875,0 0.421875,-0.15625 0.421875,-0.421875 0,-0.203125 -0.125,-0.625 -0.953125,-0.625 -0.5,0 -1.140625,0.1875 -1.6875,0.8125 v -0.34375 c 0,-0.3125 -0.0625,-0.40625 -0.40625,-0.40625 H 0.71875 c -0.15625,0 -0.40625,0 -0.40625,0.296875 0,0.3125 0.25,0.3125 0.40625,0.3125 h 0.8125 v 3.078125 h -0.8125 c -0.15625,0 -0.40625,0 -0.40625,0.296875 C 0.3125,0 0.5625,0 0.71875,0 H 3.3125 c 0.15625,0 0.421875,0 0.421875,-0.296875 0,-0.3125 -0.265625,-0.3125 -0.421875,-0.3125 H 2.21875 Z m 0,0"
           id="path1261" />
      </symbol>
      <symbol
         overflow="visible"
         id="symbol987">
        <path
           style="stroke:none"
           d="m 4.46875,-2.078125 c 0.25,0 0.46875,0 0.46875,-0.3125 0,-0.296875 -0.25,-0.296875 -0.40625,-0.296875 h -1.1875 c -0.140625,0 -0.390625,0 -0.390625,0.296875 0,0.3125 0.234375,0.3125 0.390625,0.3125 H 3.765625 C 3.65625,-0.96875 3.15625,-0.5 2.625,-0.5 c -0.796875,0 -1.5625,-1.078125 -1.5625,-2.546875 0,-1.515625 0.796875,-2.546875 1.578125,-2.546875 0.34375,0 0.984375,0.234375 1.140625,1.3125 C 3.8125,-4.109375 3.875,-4 4.125,-4 4.46875,-4 4.46875,-4.203125 4.46875,-4.40625 v -1.390625 c 0,-0.15625 0,-0.40625 -0.296875,-0.40625 -0.203125,0 -0.25,0.109375 -0.40625,0.453125 -0.34375,-0.296875 -0.75,-0.453125 -1.15625,-0.453125 -1.203125,0 -2.234375,1.34375 -2.234375,3.15625 0,1.828125 1.046875,3.15625 2.234375,3.15625 0.5625,0 0.984375,-0.296875 1.171875,-0.53125 C 3.78125,-0.203125 3.78125,0 4.140625,0 4.46875,0 4.46875,-0.21875 4.46875,-0.40625 Z m 0,0"
           id="path4028" />
      </symbol>
      <symbol
         overflow="visible"
         id="symbol9895">
        <path
           style="stroke:none"
           d=""
           id="path2157" />
      </symbol>
      <symbol
         overflow="visible"
         id="symbol3920">
        <path
           style="stroke:none"
           d="M 1.78125,-1.140625 C 1.390625,-0.484375 1,-0.34375 0.5625,-0.3125 0.4375,-0.296875 0.34375,-0.296875 0.34375,-0.109375 0.34375,-0.046875 0.40625,0 0.484375,0 0.75,0 1.0625,-0.03125 1.328125,-0.03125 c 0.34375,0 0.6875,0.03125 1,0.03125 0.0625,0 0.1875,0 0.1875,-0.1875 0,-0.109375 -0.078125,-0.125 -0.15625,-0.125 -0.21875,-0.015625 -0.46875,-0.09375 -0.46875,-0.34375 0,-0.125 0.0625,-0.234375 0.140625,-0.375 l 0.765625,-1.265625 h 2.5 c 0.015625,0.203125 0.15625,1.5625 0.15625,1.65625 0,0.296875 -0.515625,0.328125 -0.71875,0.328125 C 4.59375,-0.3125 4.5,-0.3125 4.5,-0.109375 4.5,0 4.609375,0 4.640625,0 5.046875,0 5.46875,-0.03125 5.875,-0.03125 6.125,-0.03125 6.765625,0 7.015625,0 7.0625,0 7.1875,0 7.1875,-0.203125 7.1875,-0.3125 7.09375,-0.3125 6.953125,-0.3125 6.34375,-0.3125 6.34375,-0.375 6.3125,-0.671875 l -0.609375,-6.21875 c -0.015625,-0.203125 -0.015625,-0.25 -0.1875,-0.25 -0.15625,0 -0.203125,0.078125 -0.265625,0.171875 z M 2.984375,-2.609375 4.9375,-5.90625 5.265625,-2.609375 Z m 0,0"
           id="path2881" />
      </symbol>
      <symbol
         overflow="visible"
         id="symbol5160">
        <path
           style="stroke:none"
           d=""
           id="path3622" />
      </symbol>
      <symbol
         overflow="visible"
         id="symbol6203">
        <path
           style="stroke:none"
           d="M 3.515625,-1.265625 H 3.28125 c -0.015625,0.15625 -0.09375,0.5625 -0.1875,0.625 C 3.046875,-0.59375 2.515625,-0.59375 2.40625,-0.59375 H 1.125 c 0.734375,-0.640625 0.984375,-0.84375 1.390625,-1.171875 0.515625,-0.40625 1,-0.84375 1,-1.5 0,-0.84375 -0.734375,-1.359375 -1.625,-1.359375 -0.859375,0 -1.453125,0.609375 -1.453125,1.25 0,0.34375 0.296875,0.390625 0.375,0.390625 0.15625,0 0.359375,-0.125 0.359375,-0.375 0,-0.125 -0.046875,-0.375 -0.40625,-0.375 C 0.984375,-4.21875 1.453125,-4.375 1.78125,-4.375 c 0.703125,0 1.0625,0.546875 1.0625,1.109375 0,0.609375 -0.4375,1.078125 -0.65625,1.328125 L 0.515625,-0.265625 C 0.4375,-0.203125 0.4375,-0.1875 0.4375,0 h 2.875 z m 0,0"
           id="path6802" />
      </symbol>
      <symbol
         overflow="visible"
         id="symbol7115">
        <path
           style="stroke:none"
           d="m 1.90625,-2.328125 c 0.546875,0 0.9375,0.375 0.9375,1.125 0,0.859375 -0.515625,1.125 -0.90625,1.125 -0.28125,0 -0.90625,-0.078125 -1.1875,-0.5 0.328125,0 0.40625,-0.234375 0.40625,-0.390625 0,-0.21875 -0.171875,-0.375 -0.390625,-0.375 -0.1875,0 -0.390625,0.125 -0.390625,0.40625 0,0.65625 0.71875,1.078125 1.5625,1.078125 0.96875,0 1.640625,-0.65625 1.640625,-1.34375 0,-0.546875 -0.4375,-1.09375 -1.203125,-1.25 0.71875,-0.265625 0.984375,-0.78125 0.984375,-1.21875 0,-0.546875 -0.625,-0.953125 -1.40625,-0.953125 -0.765625,0 -1.359375,0.375 -1.359375,0.9375 0,0.234375 0.15625,0.359375 0.359375,0.359375 0.21875,0 0.359375,-0.15625 0.359375,-0.34375 0,-0.203125 -0.140625,-0.359375 -0.359375,-0.375 0.25,-0.296875 0.71875,-0.375 0.984375,-0.375 0.3125,0 0.75,0.15625 0.75,0.75 0,0.296875 -0.09375,0.625 -0.28125,0.828125 -0.21875,0.265625 -0.421875,0.28125 -0.765625,0.3125 -0.171875,0.015625 -0.1875,0.015625 -0.21875,0.015625 -0.015625,0 -0.078125,0.015625 -0.078125,0.09375 0,0.09375 0.0625,0.09375 0.1875,0.09375 z m 0,0"
           id="path9347" />
      </symbol>
      <symbol
         overflow="visible"
         id="symbol9058">
        <path
           style="stroke:none"
           d="m 2.328125,-4.4375 c 0,-0.1875 0,-0.1875 -0.203125,-0.1875 -0.453125,0.4375 -1.078125,0.4375 -1.359375,0.4375 v 0.25 c 0.15625,0 0.625,0 1,-0.1875 v 3.546875 c 0,0.234375 0,0.328125 -0.6875,0.328125 H 0.8125 V 0 c 0.125,0 0.984375,-0.03125 1.234375,-0.03125 0.21875,0 1.09375,0.03125 1.25,0.03125 V -0.25 H 3.03125 c -0.703125,0 -0.703125,-0.09375 -0.703125,-0.328125 z m 0,0"
           id="path8643" />
      </symbol>
      <symbol
         overflow="visible"
         id="symbol8707">
        <path
           style="stroke:none"
           d=""
           id="path2531" />
      </symbol>
      <symbol
         overflow="visible"
         id="symbol829">
        <path
           style="stroke:none"
           d="m 6.84375,-3.265625 c 0.15625,0 0.34375,0 0.34375,-0.1875 C 7.1875,-3.65625 7,-3.65625 6.859375,-3.65625 h -5.96875 c -0.140625,0 -0.328125,0 -0.328125,0.203125 0,0.1875 0.1875,0.1875 0.328125,0.1875 z m 0.015625,1.9375 c 0.140625,0 0.328125,0 0.328125,-0.203125 0,-0.1875 -0.1875,-0.1875 -0.34375,-0.1875 H 0.890625 c -0.140625,0 -0.328125,0 -0.328125,0.1875 0,0.203125 0.1875,0.203125 0.328125,0.203125 z m 0,0"
           id="path8815" />
      </symbol>
    </g>
  </defs>
  <g
     inkscape:label="Layer 1"
     inkscape:groupmode="layer"
     id="layer1"
     transform="translate(-20.384716,-6.6004343)">
    <rect
       style="fill:#ffffff;stroke-width:0.600001"
       id="rect3464"
       width="165.45085"
       height="39.100525"
       x="20.384716"
       y="6.6004343" />
    <g
       inkscape:label=""
       transform="translate(-203.23818,-91.448604)"
       id="g3306">
      <g
         id="g7252">
        <g
           style="fill:#000000;fill-opacity:1"
           id="g5911">
          <use
             xlink:href="#symbol4801"
             x="251.82201"
             y="105.873"
             id="use3186"
             width="100%"
             height="100%" />
          <use
             xlink:href="#symbol8165"
             x="257.05237"
             y="105.873"
             id="use5468"
             width="100%"
             height="100%" />
          <use
             xlink:href="#symbol4801"
             x="262.28271"
             y="105.873"
             id="use6550"
             width="100%"
             height="100%" />
          <use
             xlink:href="#symbol4034"
             x="267.51309"
             y="105.873"
             id="use4582"
             width="100%"
             height="100%" />
          <use
             xlink:href="#symbol4801"
             x="272.74347"
             y="105.873"
             id="use7698"
             width="100%"
             height="100%" />
          <use
             xlink:href="#symbol4034"
             x="277.97382"
             y="105.873"
             id="use8131"
             width="100%"
             height="100%" />
        </g>
        <g
           style="fill:#000000;fill-opacity:1"
           id="g9790">
          <use
             xlink:href="#symbol4801"
             x="304.12564"
             y="105.873"
             id="use9754"
             width="100%"
             height="100%" />
          <use
             xlink:href="#symbol8165"
             x="309.35602"
             y="105.873"
             id="use618"
             width="100%"
             height="100%" />
          <use
             xlink:href="#symbol4801"
             x="314.58636"
             y="105.873"
             id="use6960"
             width="100%"
             height="100%" />
          <use
             xlink:href="#symbol4034"
             x="319.81674"
             y="105.873"
             id="use7311"
             width="100%"
             height="100%" />
          <use
             xlink:href="#symbol4801"
             x="325.04712"
             y="105.873"
             id="use5863"
             width="100%"
             height="100%" />
          <use
             xlink:href="#symbol4034"
             x="330.27747"
             y="105.873"
             id="use3902"
             width="100%"
             height="100%" />
        </g>
        <g
           style="fill:#000000;fill-opacity:1"
           id="g8123">
          <use
             xlink:href="#symbol4801"
             x="356.42929"
             y="105.873"
             id="use3101"
             width="100%"
             height="100%" />
          <use
             xlink:href="#symbol8165"
             x="361.65967"
             y="105.873"
             id="use1697"
             width="100%"
             height="100%" />
          <use
             xlink:href="#symbol4801"
             x="366.89005"
             y="105.873"
             id="use3598"
             width="100%"
             height="100%" />
          <use
             xlink:href="#symbol4034"
             x="372.12039"
             y="105.873"
             id="use6060"
             width="100%"
             height="100%" />
          <use
             xlink:href="#symbol4801"
             x="377.35077"
             y="105.873"
             id="use9345"
             width="100%"
             height="100%" />
          <use
             xlink:href="#symbol4034"
             x="382.58112"
             y="105.873"
             id="use6121"
             width="100%"
             height="100%" />
        </g>
        <g
           style="fill:#000000;fill-opacity:1"
           id="g2409">
          <use
             xlink:href="#symbol3920"
             x="224.189"
             y="120.817"
             id="use6542"
             width="100%"
             height="100%" />
        </g>
        <g
           style="fill:#000000;fill-opacity:1"
           id="g7727">
          <use
             xlink:href="#symbol6203"
             x="231.661"
             y="122.312"
             id="use6879"
             width="100%"
             height="100%" />
          <use
             xlink:href="#symbol7115"
             x="235.63258"
             y="122.312"
             id="use6566"
             width="100%"
             height="100%" />
          <use
             xlink:href="#symbol9058"
             x="239.60416"
             y="122.312"
             id="use4279"
             width="100%"
             height="100%" />
        </g>
        <g
           style="fill:#000000;fill-opacity:1"
           id="g3005">
          <use
             xlink:href="#symbol829"
             x="244.073"
             y="120.817"
             id="use3050"
             width="100%"
             height="100%" />
        </g>
        <g
           style="fill:#000000;fill-opacity:1"
           id="g1407">
          <use
             xlink:href="#symbol3917"
             x="251.82201"
             y="120.817"
             id="use7777"
             width="100%"
             height="100%" />
          <use
             xlink:href="#symbol7410"
             x="257.05237"
             y="120.817"
             id="use7516"
             width="100%"
             height="100%" />
          <use
             xlink:href="#symbol4801"
             x="262.28271"
             y="120.817"
             id="use6160"
             width="100%"
             height="100%" />
          <use
             xlink:href="#symbol4034"
             x="267.51309"
             y="120.817"
             id="use9953"
             width="100%"
             height="100%" />
          <use
             xlink:href="#symbol4801"
             x="272.74347"
             y="120.817"
             id="use9091"
             width="100%"
             height="100%" />
          <use
             xlink:href="#symbol3917"
             x="277.97382"
             y="120.817"
             id="use576"
             width="100%"
             height="100%" />
        </g>
        <g
           style="fill:#000000;fill-opacity:1"
           id="g4913">
          <use
             xlink:href="#symbol5909"
             x="288.43454"
             y="120.817"
             id="use423"
             width="100%"
             height="100%" />
          <use
             xlink:href="#symbol9337"
             x="293.66492"
             y="120.817"
             id="use3470"
             width="100%"
             height="100%" />
        </g>
        <g
           style="fill:#000000;fill-opacity:1"
           id="g9922">
          <use
             xlink:href="#symbol7410"
             x="304.12564"
             y="120.817"
             id="use6380"
             width="100%"
             height="100%" />
          <use
             xlink:href="#symbol3917"
             x="309.35602"
             y="120.817"
             id="use6470"
             width="100%"
             height="100%" />
          <use
             xlink:href="#symbol4801"
             x="314.58636"
             y="120.817"
             id="use2597"
             width="100%"
             height="100%" />
          <use
             xlink:href="#symbol4034"
             x="319.81674"
             y="120.817"
             id="use815"
             width="100%"
             height="100%" />
          <use
             xlink:href="#symbol4801"
             x="325.04712"
             y="120.817"
             id="use4655"
             width="100%"
             height="100%" />
          <use
             xlink:href="#symbol3917"
             x="330.27747"
             y="120.817"
             id="use480"
             width="100%"
             height="100%" />
        </g>
        <g
           style="fill:#000000;fill-opacity:1"
           id="g3220">
          <use
             xlink:href="#symbol5909"
             x="340.73822"
             y="120.817"
             id="use292"
             width="100%"
             height="100%" />
          <use
             xlink:href="#symbol9337"
             x="345.96857"
             y="120.817"
             id="use9557"
             width="100%"
             height="100%" />
        </g>
        <g
           style="fill:#000000;fill-opacity:1"
           id="g3214">
          <use
             xlink:href="#symbol7410"
             x="356.42929"
             y="120.817"
             id="use7047"
             width="100%"
             height="100%" />
          <use
             xlink:href="#symbol4801"
             x="361.65967"
             y="120.817"
             id="use4107"
             width="100%"
             height="100%" />
          <use
             xlink:href="#symbol3917"
             x="366.89005"
             y="120.817"
             id="use7786"
             width="100%"
             height="100%" />
          <use
             xlink:href="#symbol4034"
             x="372.12039"
             y="120.817"
             id="use9169"
             width="100%"
             height="100%" />
          <use
             xlink:href="#symbol4801"
             x="377.35077"
             y="120.817"
             id="use9974"
             width="100%"
             height="100%" />
          <use
             xlink:href="#symbol3917"
             x="382.58112"
             y="120.817"
             id="use4644"
             width="100%"
             height="100%" />
        </g>
        <g
           style="fill:#000000;fill-opacity:1"
           id="g5083">
          <use
             xlink:href="#symbol3917"
             x="251.82201"
             y="135.761"
             id="use9395"
             width="100%"
             height="100%" />
          <use
             xlink:href="#symbol987"
             x="257.05237"
             y="135.761"
             id="use8021"
             width="100%"
             height="100%" />
          <use
             xlink:href="#symbol8165"
             x="262.28271"
             y="135.761"
             id="use1841"
             width="100%"
             height="100%" />
          <use
             xlink:href="#symbol4034"
             x="267.51309"
             y="135.761"
             id="use338"
             width="100%"
             height="100%" />
          <use
             xlink:href="#symbol4801"
             x="272.74347"
             y="135.761"
             id="use2221"
             width="100%"
             height="100%" />
          <use
             xlink:href="#symbol3917"
             x="277.97382"
             y="135.761"
             id="use6802"
             width="100%"
             height="100%" />
        </g>
        <g
           style="fill:#000000;fill-opacity:1"
           id="g7389">
          <use
             xlink:href="#symbol987"
             x="304.12564"
             y="135.761"
             id="use804"
             width="100%"
             height="100%" />
          <use
             xlink:href="#symbol3917"
             x="309.35602"
             y="135.761"
             id="use4833"
             width="100%"
             height="100%" />
          <use
             xlink:href="#symbol8165"
             x="314.58636"
             y="135.761"
             id="use7939"
             width="100%"
             height="100%" />
          <use
             xlink:href="#symbol4034"
             x="319.81674"
             y="135.761"
             id="use5736"
             width="100%"
             height="100%" />
          <use
             xlink:href="#symbol4801"
             x="325.04712"
             y="135.761"
             id="use2094"
             width="100%"
             height="100%" />
          <use
             xlink:href="#symbol3917"
             x="330.27747"
             y="135.761"
             id="use303"
             width="100%"
             height="100%" />
        </g>
        <g
           style="fill:#000000;fill-opacity:1"
           id="g9465">
          <use
             xlink:href="#symbol987"
             x="356.42929"
             y="135.761"
             id="use879"
             width="100%"
             height="100%" />
          <use
             xlink:href="#symbol8165"
             x="361.65967"
             y="135.761"
             id="use4695"
             width="100%"
             height="100%" />
          <use
             xlink:href="#symbol3917"
             x="366.89005"
             y="135.761"
             id="use4208"
             width="100%"
             height="100%" />
          <use
             xlink:href="#symbol4034"
             x="372.12039"
             y="135.761"
             id="use8069"
             width="100%"
             height="100%" />
          <use
             xlink:href="#symbol4801"
             x="377.35077"
             y="135.761"
             id="use5762"
             width="100%"
             height="100%" />
          <use
             xlink:href="#symbol3917"
             x="382.58112"
             y="135.761"
             id="use1147"
             width="100%"
             height="100%" />
        </g>
      </g>
    </g>
  </g>
</svg>
