<?xml version="1.0" encoding="UTF-8" standalone="no"?>
<!-- Created with Inkscape (http://www.inkscape.org/) -->

<svg
   width="127.3896mm"
   height="40.173309mm"
   viewBox="0 0 127.3896 40.17331"
   version="1.1"
   id="svg5"
   sodipodi:docname="sheet9-exercise2-alignments.svg"
   inkscape:version="1.1.1 (1:1.1+202109281949+c3084ef5ed)"
   xmlns:inkscape="http://www.inkscape.org/namespaces/inkscape"
   xmlns:sodipodi="http://sodipodi.sourceforge.net/DTD/sodipodi-0.dtd"
   xmlns:xlink="http://www.w3.org/1999/xlink"
   xmlns="http://www.w3.org/2000/svg"
   xmlns:svg="http://www.w3.org/2000/svg">
  <sodipodi:namedview
     id="namedview7"
     pagecolor="#ffffff"
     bordercolor="#666666"
     borderopacity="1.0"
     inkscape:pageshadow="2"
     inkscape:pageopacity="0.0"
     inkscape:pagecheckerboard="0"
     inkscape:document-units="mm"
     showgrid="false"
     inkscape:zoom="0.18796998"
     inkscape:cx="832.57976"
     inkscape:cy="180.87995"
     inkscape:window-width="1920"
     inkscape:window-height="1043"
     inkscape:window-x="1920"
     inkscape:window-y="0"
     inkscape:window-maximized="1"
     inkscape:current-layer="layer1"
     fit-margin-top="0"
     fit-margin-left="0"
     fit-margin-right="0"
     fit-margin-bottom="0" />
  <defs
     id="defs2">
    <g
       id="g35">
      <symbol
         overflow="visible"
         id="symbol8771">
        <path
           style="stroke:none"
           d=""
           id="path6830" />
      </symbol>
      <symbol
         overflow="visible"
         id="symbol4819">
        <path
           style="stroke:none"
           d="M 1.78125,-1.140625 C 1.390625,-0.484375 1,-0.34375 0.5625,-0.3125 0.4375,-0.296875 0.34375,-0.296875 0.34375,-0.109375 0.34375,-0.046875 0.40625,0 0.484375,0 0.75,0 1.0625,-0.03125 1.328125,-0.03125 c 0.34375,0 0.6875,0.03125 1,0.03125 0.0625,0 0.1875,0 0.1875,-0.1875 0,-0.109375 -0.078125,-0.125 -0.15625,-0.125 -0.21875,-0.015625 -0.46875,-0.09375 -0.46875,-0.34375 0,-0.125 0.0625,-0.234375 0.140625,-0.375 l 0.765625,-1.265625 h 2.5 c 0.015625,0.203125 0.15625,1.5625 0.15625,1.65625 0,0.296875 -0.515625,0.328125 -0.71875,0.328125 C 4.59375,-0.3125 4.5,-0.3125 4.5,-0.109375 4.5,0 4.609375,0 4.640625,0 5.046875,0 5.46875,-0.03125 5.875,-0.03125 6.125,-0.03125 6.765625,0 7.015625,0 7.0625,0 7.1875,0 7.1875,-0.203125 7.1875,-0.3125 7.09375,-0.3125 6.953125,-0.3125 6.34375,-0.3125 6.34375,-0.375 6.3125,-0.671875 l -0.609375,-6.21875 c -0.015625,-0.203125 -0.015625,-0.25 -0.1875,-0.25 -0.15625,0 -0.203125,0.078125 -0.265625,0.171875 z M 2.984375,-2.609375 4.9375,-5.90625 5.265625,-2.609375 Z m 0,0"
           id="path3468" />
      </symbol>
      <symbol
         overflow="visible"
         id="symbol292">
        <path
           style="stroke:none"
           d=""
           id="path7249" />
      </symbol>
      <symbol
         overflow="visible"
         id="symbol8657">
        <path
           style="stroke:none"
           d="m 2.328125,-4.4375 c 0,-0.1875 0,-0.1875 -0.203125,-0.1875 -0.453125,0.4375 -1.078125,0.4375 -1.359375,0.4375 v 0.25 c 0.15625,0 0.625,0 1,-0.1875 v 3.546875 c 0,0.234375 0,0.328125 -0.6875,0.328125 H 0.8125 V 0 c 0.125,0 0.984375,-0.03125 1.234375,-0.03125 0.21875,0 1.09375,0.03125 1.25,0.03125 V -0.25 H 3.03125 c -0.703125,0 -0.703125,-0.09375 -0.703125,-0.328125 z m 0,0"
           id="path2603" />
      </symbol>
      <symbol
         overflow="visible"
         id="symbol9502">
        <path
           style="stroke:none"
           d="M 3.515625,-1.265625 H 3.28125 c -0.015625,0.15625 -0.09375,0.5625 -0.1875,0.625 C 3.046875,-0.59375 2.515625,-0.59375 2.40625,-0.59375 H 1.125 c 0.734375,-0.640625 0.984375,-0.84375 1.390625,-1.171875 0.515625,-0.40625 1,-0.84375 1,-1.5 0,-0.84375 -0.734375,-1.359375 -1.625,-1.359375 -0.859375,0 -1.453125,0.609375 -1.453125,1.25 0,0.34375 0.296875,0.390625 0.375,0.390625 0.15625,0 0.359375,-0.125 0.359375,-0.375 0,-0.125 -0.046875,-0.375 -0.40625,-0.375 C 0.984375,-4.21875 1.453125,-4.375 1.78125,-4.375 c 0.703125,0 1.0625,0.546875 1.0625,1.109375 0,0.609375 -0.4375,1.078125 -0.65625,1.328125 L 0.515625,-0.265625 C 0.4375,-0.203125 0.4375,-0.1875 0.4375,0 h 2.875 z m 0,0"
           id="path6018" />
      </symbol>
      <symbol
         overflow="visible"
         id="symbol8285">
        <path
           style="stroke:none"
           d="m 1.90625,-2.328125 c 0.546875,0 0.9375,0.375 0.9375,1.125 0,0.859375 -0.515625,1.125 -0.90625,1.125 -0.28125,0 -0.90625,-0.078125 -1.1875,-0.5 0.328125,0 0.40625,-0.234375 0.40625,-0.390625 0,-0.21875 -0.171875,-0.375 -0.390625,-0.375 -0.1875,0 -0.390625,0.125 -0.390625,0.40625 0,0.65625 0.71875,1.078125 1.5625,1.078125 0.96875,0 1.640625,-0.65625 1.640625,-1.34375 0,-0.546875 -0.4375,-1.09375 -1.203125,-1.25 0.71875,-0.265625 0.984375,-0.78125 0.984375,-1.21875 0,-0.546875 -0.625,-0.953125 -1.40625,-0.953125 -0.765625,0 -1.359375,0.375 -1.359375,0.9375 0,0.234375 0.15625,0.359375 0.359375,0.359375 0.21875,0 0.359375,-0.15625 0.359375,-0.34375 0,-0.203125 -0.140625,-0.359375 -0.359375,-0.375 0.25,-0.296875 0.71875,-0.375 0.984375,-0.375 0.3125,0 0.75,0.15625 0.75,0.75 0,0.296875 -0.09375,0.625 -0.28125,0.828125 -0.21875,0.265625 -0.421875,0.28125 -0.765625,0.3125 -0.171875,0.015625 -0.1875,0.015625 -0.21875,0.015625 -0.015625,0 -0.078125,0.015625 -0.078125,0.09375 0,0.09375 0.0625,0.09375 0.1875,0.09375 z m 0,0"
           id="path7800" />
      </symbol>
      <symbol
         overflow="visible"
         id="symbol2226">
        <path
           style="stroke:none"
           d=""
           id="path4644" />
      </symbol>
      <symbol
         overflow="visible"
         id="symbol3858">
        <path
           style="stroke:none"
           d="m 4.828125,-5.796875 c 0,-0.15625 0,-0.40625 -0.296875,-0.40625 -0.1875,0 -0.234375,0.109375 -0.28125,0.171875 -0.015625,0.046875 -0.015625,0.0625 -0.15625,0.3125 C 3.765625,-6 3.3125,-6.203125 2.796875,-6.203125 c -1.28125,0 -2.390625,1.34375 -2.390625,3.15625 0,1.828125 1.109375,3.15625 2.40625,3.15625 1.15625,0 2.015625,-0.890625 2.015625,-1.78125 C 4.828125,-2 4.578125,-2 4.46875,-2 4.390625,-2 4.15625,-2 4.140625,-1.71875 4.0625,-0.734375 3.265625,-0.5 2.84375,-0.5 c -0.90625,0 -1.75,-1.0625 -1.75,-2.546875 0,-1.484375 0.859375,-2.546875 1.75,-2.546875 0.59375,0 1.140625,0.453125 1.28125,1.265625 C 4.15625,-4.15625 4.171875,-4 4.46875,-4 4.828125,-4 4.828125,-4.203125 4.828125,-4.40625 Z m 0,0"
           id="path2729" />
      </symbol>
      <symbol
         overflow="visible"
         id="symbol7242">
        <path
           style="stroke:none"
           d="M 2.953125,-5.484375 H 4.28125 v 0.53125 c 0,0.1875 0,0.40625 0.328125,0.40625 0.359375,0 0.359375,-0.203125 0.359375,-0.40625 V -5.6875 c 0,-0.296875 -0.0625,-0.40625 -0.40625,-0.40625 H 0.671875 c -0.328125,0 -0.40625,0.078125 -0.40625,0.40625 v 0.734375 c 0,0.1875 0,0.40625 0.328125,0.40625 0.359375,0 0.359375,-0.203125 0.359375,-0.40625 v -0.53125 h 1.3125 v 4.875 H 1.75 c -0.140625,0 -0.390625,0 -0.390625,0.296875 C 1.359375,0 1.59375,0 1.75,0 H 3.484375 C 3.625,0 3.875,0 3.875,-0.296875 c 0,-0.3125 -0.234375,-0.3125 -0.390625,-0.3125 h -0.53125 z m 0,0"
           id="path540" />
      </symbol>
      <symbol
         overflow="visible"
         id="symbol4277">
        <path
           style="stroke:none"
           d="m 3.15625,-5.828125 c -0.09375,-0.375 -0.234375,-0.375 -0.546875,-0.375 -0.28125,0 -0.453125,0 -0.53125,0.375 L 0.875,-0.609375 c -0.140625,0 -0.375,0 -0.4375,0.015625 -0.109375,0.0625 -0.171875,0.171875 -0.171875,0.296875 C 0.265625,0 0.53125,0 0.703125,0 H 1.71875 c 0.171875,0 0.421875,0 0.421875,-0.296875 0,-0.3125 -0.203125,-0.3125 -0.5625,-0.3125 l 0.21875,-1.03125 h 1.625 l 0.234375,1.03125 c -0.359375,0 -0.5625,0 -0.5625,0.3125 C 3.09375,0 3.328125,0 3.515625,0 H 4.53125 c 0.15625,0 0.421875,0 0.421875,-0.296875 0,-0.125 -0.046875,-0.234375 -0.171875,-0.28125 C 4.71875,-0.609375 4.5,-0.609375 4.359375,-0.609375 Z M 2.609375,-5.40625 H 2.625 L 3.265625,-2.25 h -1.3125 z m 0,0"
           id="path5062" />
      </symbol>
      <symbol
         overflow="visible"
         id="symbol3973">
        <path
           style="stroke:none"
           d="m 4.46875,-2.078125 c 0.25,0 0.46875,0 0.46875,-0.3125 0,-0.296875 -0.25,-0.296875 -0.40625,-0.296875 h -1.1875 c -0.140625,0 -0.390625,0 -0.390625,0.296875 0,0.3125 0.234375,0.3125 0.390625,0.3125 H 3.765625 C 3.65625,-0.96875 3.15625,-0.5 2.625,-0.5 c -0.796875,0 -1.5625,-1.078125 -1.5625,-2.546875 0,-1.515625 0.796875,-2.546875 1.578125,-2.546875 0.34375,0 0.984375,0.234375 1.140625,1.3125 C 3.8125,-4.109375 3.875,-4 4.125,-4 4.46875,-4 4.46875,-4.203125 4.46875,-4.40625 v -1.390625 c 0,-0.15625 0,-0.40625 -0.296875,-0.40625 -0.203125,0 -0.25,0.109375 -0.40625,0.453125 -0.34375,-0.296875 -0.75,-0.453125 -1.15625,-0.453125 -1.203125,0 -2.234375,1.34375 -2.234375,3.15625 0,1.828125 1.046875,3.15625 2.234375,3.15625 0.5625,0 0.984375,-0.296875 1.171875,-0.53125 C 3.78125,-0.203125 3.78125,0 4.140625,0 4.46875,0 4.46875,-0.21875 4.46875,-0.40625 Z m 0,0"
           id="path8974" />
      </symbol>
      <symbol
         overflow="visible"
         id="symbol6950">
        <path
           style="stroke:none"
           d="m 4.203125,-2.703125 c 0.109375,0 0.46875,0 0.46875,-0.34375 0,-0.359375 -0.359375,-0.359375 -0.46875,-0.359375 H 1.03125 c -0.125,0 -0.46875,0 -0.46875,0.359375 0,0.34375 0.34375,0.34375 0.46875,0.34375 z m 0,0"
           id="path6010" />
      </symbol>
    </g>
    <g
       id="g9759">
      <symbol
         overflow="visible"
         id="symbol6176">
        <path
           style="stroke:none"
           d=""
           id="path5002" />
      </symbol>
      <symbol
         overflow="visible"
         id="symbol3564">
        <path
           style="stroke:none"
           d="M 1.78125,-1.140625 C 1.390625,-0.484375 1,-0.34375 0.5625,-0.3125 0.4375,-0.296875 0.34375,-0.296875 0.34375,-0.109375 0.34375,-0.046875 0.40625,0 0.484375,0 0.75,0 1.0625,-0.03125 1.328125,-0.03125 c 0.34375,0 0.6875,0.03125 1,0.03125 0.0625,0 0.1875,0 0.1875,-0.1875 0,-0.109375 -0.078125,-0.125 -0.15625,-0.125 -0.21875,-0.015625 -0.46875,-0.09375 -0.46875,-0.34375 0,-0.125 0.0625,-0.234375 0.140625,-0.375 l 0.765625,-1.265625 h 2.5 c 0.015625,0.203125 0.15625,1.5625 0.15625,1.65625 0,0.296875 -0.515625,0.328125 -0.71875,0.328125 C 4.59375,-0.3125 4.5,-0.3125 4.5,-0.109375 4.5,0 4.609375,0 4.640625,0 5.046875,0 5.46875,-0.03125 5.875,-0.03125 6.125,-0.03125 6.765625,0 7.015625,0 7.0625,0 7.1875,0 7.1875,-0.203125 7.1875,-0.3125 7.09375,-0.3125 6.953125,-0.3125 6.34375,-0.3125 6.34375,-0.375 6.3125,-0.671875 l -0.609375,-6.21875 c -0.015625,-0.203125 -0.015625,-0.25 -0.1875,-0.25 -0.15625,0 -0.203125,0.078125 -0.265625,0.171875 z M 2.984375,-2.609375 4.9375,-5.90625 5.265625,-2.609375 Z m 0,0"
           id="path6916" />
      </symbol>
      <symbol
         overflow="visible"
         id="symbol9649">
        <path
           style="stroke:none"
           d=""
           id="path9625" />
      </symbol>
      <symbol
         overflow="visible"
         id="symbol198">
        <path
           style="stroke:none"
           d="m 2.328125,-4.4375 c 0,-0.1875 0,-0.1875 -0.203125,-0.1875 -0.453125,0.4375 -1.078125,0.4375 -1.359375,0.4375 v 0.25 c 0.15625,0 0.625,0 1,-0.1875 v 3.546875 c 0,0.234375 0,0.328125 -0.6875,0.328125 H 0.8125 V 0 c 0.125,0 0.984375,-0.03125 1.234375,-0.03125 0.21875,0 1.09375,0.03125 1.25,0.03125 V -0.25 H 3.03125 c -0.703125,0 -0.703125,-0.09375 -0.703125,-0.328125 z m 0,0"
           id="path2956" />
      </symbol>
      <symbol
         overflow="visible"
         id="symbol1880">
        <path
           style="stroke:none"
           d="M 3.515625,-1.265625 H 3.28125 c -0.015625,0.15625 -0.09375,0.5625 -0.1875,0.625 C 3.046875,-0.59375 2.515625,-0.59375 2.40625,-0.59375 H 1.125 c 0.734375,-0.640625 0.984375,-0.84375 1.390625,-1.171875 0.515625,-0.40625 1,-0.84375 1,-1.5 0,-0.84375 -0.734375,-1.359375 -1.625,-1.359375 -0.859375,0 -1.453125,0.609375 -1.453125,1.25 0,0.34375 0.296875,0.390625 0.375,0.390625 0.15625,0 0.359375,-0.125 0.359375,-0.375 0,-0.125 -0.046875,-0.375 -0.40625,-0.375 C 0.984375,-4.21875 1.453125,-4.375 1.78125,-4.375 c 0.703125,0 1.0625,0.546875 1.0625,1.109375 0,0.609375 -0.4375,1.078125 -0.65625,1.328125 L 0.515625,-0.265625 C 0.4375,-0.203125 0.4375,-0.1875 0.4375,0 h 2.875 z m 0,0"
           id="path2979" />
      </symbol>
      <symbol
         overflow="visible"
         id="symbol3720">
        <path
           style="stroke:none"
           d="m 1.90625,-2.328125 c 0.546875,0 0.9375,0.375 0.9375,1.125 0,0.859375 -0.515625,1.125 -0.90625,1.125 -0.28125,0 -0.90625,-0.078125 -1.1875,-0.5 0.328125,0 0.40625,-0.234375 0.40625,-0.390625 0,-0.21875 -0.171875,-0.375 -0.390625,-0.375 -0.1875,0 -0.390625,0.125 -0.390625,0.40625 0,0.65625 0.71875,1.078125 1.5625,1.078125 0.96875,0 1.640625,-0.65625 1.640625,-1.34375 0,-0.546875 -0.4375,-1.09375 -1.203125,-1.25 0.71875,-0.265625 0.984375,-0.78125 0.984375,-1.21875 0,-0.546875 -0.625,-0.953125 -1.40625,-0.953125 -0.765625,0 -1.359375,0.375 -1.359375,0.9375 0,0.234375 0.15625,0.359375 0.359375,0.359375 0.21875,0 0.359375,-0.15625 0.359375,-0.34375 0,-0.203125 -0.140625,-0.359375 -0.359375,-0.375 0.25,-0.296875 0.71875,-0.375 0.984375,-0.375 0.3125,0 0.75,0.15625 0.75,0.75 0,0.296875 -0.09375,0.625 -0.28125,0.828125 -0.21875,0.265625 -0.421875,0.28125 -0.765625,0.3125 -0.171875,0.015625 -0.1875,0.015625 -0.21875,0.015625 -0.015625,0 -0.078125,0.015625 -0.078125,0.09375 0,0.09375 0.0625,0.09375 0.1875,0.09375 z m 0,0"
           id="path8514" />
      </symbol>
      <symbol
         overflow="visible"
         id="symbol6611">
        <path
           style="stroke:none"
           d=""
           id="path4030" />
      </symbol>
      <symbol
         overflow="visible"
         id="symbol6619">
        <path
           style="stroke:none"
           d="m 4.828125,-5.796875 c 0,-0.15625 0,-0.40625 -0.296875,-0.40625 -0.1875,0 -0.234375,0.109375 -0.28125,0.171875 -0.015625,0.046875 -0.015625,0.0625 -0.15625,0.3125 C 3.765625,-6 3.3125,-6.203125 2.796875,-6.203125 c -1.28125,0 -2.390625,1.34375 -2.390625,3.15625 0,1.828125 1.109375,3.15625 2.40625,3.15625 1.15625,0 2.015625,-0.890625 2.015625,-1.78125 C 4.828125,-2 4.578125,-2 4.46875,-2 4.390625,-2 4.15625,-2 4.140625,-1.71875 4.0625,-0.734375 3.265625,-0.5 2.84375,-0.5 c -0.90625,0 -1.75,-1.0625 -1.75,-2.546875 0,-1.484375 0.859375,-2.546875 1.75,-2.546875 0.59375,0 1.140625,0.453125 1.28125,1.265625 C 4.15625,-4.15625 4.171875,-4 4.46875,-4 4.828125,-4 4.828125,-4.203125 4.828125,-4.40625 Z m 0,0"
           id="path6373" />
      </symbol>
      <symbol
         overflow="visible"
         id="symbol5028">
        <path
           style="stroke:none"
           d="M 2.953125,-5.484375 H 4.28125 v 0.53125 c 0,0.1875 0,0.40625 0.328125,0.40625 0.359375,0 0.359375,-0.203125 0.359375,-0.40625 V -5.6875 c 0,-0.296875 -0.0625,-0.40625 -0.40625,-0.40625 H 0.671875 c -0.328125,0 -0.40625,0.078125 -0.40625,0.40625 v 0.734375 c 0,0.1875 0,0.40625 0.328125,0.40625 0.359375,0 0.359375,-0.203125 0.359375,-0.40625 v -0.53125 h 1.3125 v 4.875 H 1.75 c -0.140625,0 -0.390625,0 -0.390625,0.296875 C 1.359375,0 1.59375,0 1.75,0 H 3.484375 C 3.625,0 3.875,0 3.875,-0.296875 c 0,-0.3125 -0.234375,-0.3125 -0.390625,-0.3125 h -0.53125 z m 0,0"
           id="path4175" />
      </symbol>
      <symbol
         overflow="visible"
         id="symbol506">
        <path
           style="stroke:none"
           d="m 3.15625,-5.828125 c -0.09375,-0.375 -0.234375,-0.375 -0.546875,-0.375 -0.28125,0 -0.453125,0 -0.53125,0.375 L 0.875,-0.609375 c -0.140625,0 -0.375,0 -0.4375,0.015625 -0.109375,0.0625 -0.171875,0.171875 -0.171875,0.296875 C 0.265625,0 0.53125,0 0.703125,0 H 1.71875 c 0.171875,0 0.421875,0 0.421875,-0.296875 0,-0.3125 -0.203125,-0.3125 -0.5625,-0.3125 l 0.21875,-1.03125 h 1.625 l 0.234375,1.03125 c -0.359375,0 -0.5625,0 -0.5625,0.3125 C 3.09375,0 3.328125,0 3.515625,0 H 4.53125 c 0.15625,0 0.421875,0 0.421875,-0.296875 0,-0.125 -0.046875,-0.234375 -0.171875,-0.28125 C 4.71875,-0.609375 4.5,-0.609375 4.359375,-0.609375 Z M 2.609375,-5.40625 H 2.625 L 3.265625,-2.25 h -1.3125 z m 0,0"
           id="path7932" />
      </symbol>
      <symbol
         overflow="visible"
         id="symbol2631">
        <path
           style="stroke:none"
           d="m 4.203125,-2.703125 c 0.109375,0 0.46875,0 0.46875,-0.34375 0,-0.359375 -0.359375,-0.359375 -0.46875,-0.359375 H 1.03125 c -0.125,0 -0.46875,0 -0.46875,0.359375 0,0.34375 0.34375,0.34375 0.46875,0.34375 z m 0,0"
           id="path9875" />
      </symbol>
      <symbol
         overflow="visible"
         id="symbol2635">
        <path
           style="stroke:none"
           d="m 4.46875,-2.078125 c 0.25,0 0.46875,0 0.46875,-0.3125 0,-0.296875 -0.25,-0.296875 -0.40625,-0.296875 h -1.1875 c -0.140625,0 -0.390625,0 -0.390625,0.296875 0,0.3125 0.234375,0.3125 0.390625,0.3125 H 3.765625 C 3.65625,-0.96875 3.15625,-0.5 2.625,-0.5 c -0.796875,0 -1.5625,-1.078125 -1.5625,-2.546875 0,-1.515625 0.796875,-2.546875 1.578125,-2.546875 0.34375,0 0.984375,0.234375 1.140625,1.3125 C 3.8125,-4.109375 3.875,-4 4.125,-4 4.46875,-4 4.46875,-4.203125 4.46875,-4.40625 v -1.390625 c 0,-0.15625 0,-0.40625 -0.296875,-0.40625 -0.203125,0 -0.25,0.109375 -0.40625,0.453125 -0.34375,-0.296875 -0.75,-0.453125 -1.15625,-0.453125 -1.203125,0 -2.234375,1.34375 -2.234375,3.15625 0,1.828125 1.046875,3.15625 2.234375,3.15625 0.5625,0 0.984375,-0.296875 1.171875,-0.53125 C 3.78125,-0.203125 3.78125,0 4.140625,0 4.46875,0 4.46875,-0.21875 4.46875,-0.40625 Z m 0,0"
           id="path7578" />
      </symbol>
    </g>
  </defs>
  <g
     inkscape:label="Layer 1"
     inkscape:groupmode="layer"
     id="layer1"
     transform="translate(-52.403576,-12.288347)">
    <rect
       style="fill:#ffffff;stroke-width:0.600001"
       id="rect1033"
       width="127.3896"
       height="40.173309"
       x="52.403576"
       y="12.288347" />
    <g
       inkscape:label=""
       transform="translate(-188.85074,-84.918581)"
       id="g7693">
      <g
         id="g5428">
        <g
           style="fill:#000000;fill-opacity:1"
           id="g3133">
          <use
             xlink:href="#symbol3564"
             x="252.243"
             y="105.873"
             id="use1318"
             width="100%"
             height="100%" />
        </g>
        <g
           style="fill:#000000;fill-opacity:1"
           id="g4962">
          <use
             xlink:href="#symbol198"
             x="259.715"
             y="107.368"
             id="use926"
             width="100%"
             height="100%" />
          <use
             xlink:href="#symbol1880"
             x="263.68658"
             y="107.368"
             id="use8462"
             width="100%"
             height="100%" />
        </g>
        <g
           style="fill:#000000;fill-opacity:1"
           id="g7858">
          <use
             xlink:href="#symbol3564"
             x="304.685"
             y="105.873"
             id="use5833"
             width="100%"
             height="100%" />
        </g>
        <g
           style="fill:#000000;fill-opacity:1"
           id="g6434">
          <use
             xlink:href="#symbol198"
             x="312.15701"
             y="107.368"
             id="use4648"
             width="100%"
             height="100%" />
          <use
             xlink:href="#symbol3720"
             x="316.12857"
             y="107.368"
             id="use1154"
             width="100%"
             height="100%" />
        </g>
        <g
           style="fill:#000000;fill-opacity:1"
           id="g3784">
          <use
             xlink:href="#symbol3564"
             x="350.48599"
             y="105.873"
             id="use5975"
             width="100%"
             height="100%" />
        </g>
        <g
           style="fill:#000000;fill-opacity:1"
           id="g7660">
          <use
             xlink:href="#symbol1880"
             x="357.95801"
             y="107.368"
             id="use816"
             width="100%"
             height="100%" />
          <use
             xlink:href="#symbol3720"
             x="361.92957"
             y="107.368"
             id="use1728"
             width="100%"
             height="100%" />
        </g>
        <g
           style="fill:#000000;fill-opacity:1"
           id="g7215">
          <use
             xlink:href="#symbol6619"
             x="242.28101"
             y="120.817"
             id="use7758"
             width="100%"
             height="100%" />
          <use
             xlink:href="#symbol5028"
             x="247.51137"
             y="120.817"
             id="use8639"
             width="100%"
             height="100%" />
          <use
             xlink:href="#symbol6619"
             x="252.74173"
             y="120.817"
             id="use4367"
             width="100%"
             height="100%" />
          <use
             xlink:href="#symbol506"
             x="257.97211"
             y="120.817"
             id="use8273"
             width="100%"
             height="100%" />
          <use
             xlink:href="#symbol6619"
             x="263.20245"
             y="120.817"
             id="use7735"
             width="100%"
             height="100%" />
          <use
             xlink:href="#symbol506"
             x="268.43283"
             y="120.817"
             id="use6068"
             width="100%"
             height="100%" />
        </g>
        <g
           style="fill:#000000;fill-opacity:1"
           id="g9259">
          <use
             xlink:href="#symbol6619"
             x="294.58466"
             y="120.817"
             id="use7553"
             width="100%"
             height="100%" />
          <use
             xlink:href="#symbol5028"
             x="299.815"
             y="120.817"
             id="use8055"
             width="100%"
             height="100%" />
          <use
             xlink:href="#symbol6619"
             x="305.04538"
             y="120.817"
             id="use2624"
             width="100%"
             height="100%" />
          <use
             xlink:href="#symbol506"
             x="310.27576"
             y="120.817"
             id="use6331"
             width="100%"
             height="100%" />
          <use
             xlink:href="#symbol6619"
             x="315.5061"
             y="120.817"
             id="use5097"
             width="100%"
             height="100%" />
          <use
             xlink:href="#symbol506"
             x="320.73648"
             y="120.817"
             id="use6380"
             width="100%"
             height="100%" />
        </g>
        <g
           style="fill:#000000;fill-opacity:1"
           id="g3635">
          <use
             xlink:href="#symbol2631"
             x="346.88831"
             y="120.817"
             id="use4900"
             width="100%"
             height="100%" />
          <use
             xlink:href="#symbol6619"
             x="352.11865"
             y="120.817"
             id="use419"
             width="100%"
             height="100%" />
          <use
             xlink:href="#symbol506"
             x="357.34903"
             y="120.817"
             id="use925"
             width="100%"
             height="100%" />
          <use
             xlink:href="#symbol6619"
             x="362.57941"
             y="120.817"
             id="use5107"
             width="100%"
             height="100%" />
        </g>
        <g
           style="fill:#000000;fill-opacity:1"
           id="g4309">
          <use
             xlink:href="#symbol2631"
             x="242.28101"
             y="135.761"
             id="use6273"
             width="100%"
             height="100%" />
          <use
             xlink:href="#symbol2631"
             x="247.51137"
             y="135.761"
             id="use8924"
             width="100%"
             height="100%" />
          <use
             xlink:href="#symbol6619"
             x="252.74173"
             y="135.761"
             id="use4975"
             width="100%"
             height="100%" />
          <use
             xlink:href="#symbol506"
             x="257.97211"
             y="135.761"
             id="use3129"
             width="100%"
             height="100%" />
          <use
             xlink:href="#symbol6619"
             x="263.20245"
             y="135.761"
             id="use2659"
             width="100%"
             height="100%" />
          <use
             xlink:href="#symbol2631"
             x="268.43283"
             y="135.761"
             id="use5287"
             width="100%"
             height="100%" />
        </g>
        <g
           style="fill:#000000;fill-opacity:1"
           id="g7608">
          <use
             xlink:href="#symbol2635"
             x="294.58466"
             y="135.761"
             id="use4391"
             width="100%"
             height="100%" />
          <use
             xlink:href="#symbol5028"
             x="299.815"
             y="135.761"
             id="use501"
             width="100%"
             height="100%" />
          <use
             xlink:href="#symbol2631"
             x="305.04538"
             y="135.761"
             id="use9472"
             width="100%"
             height="100%" />
          <use
             xlink:href="#symbol506"
             x="310.27576"
             y="135.761"
             id="use4675"
             width="100%"
             height="100%" />
          <use
             xlink:href="#symbol6619"
             x="315.5061"
             y="135.761"
             id="use6312"
             width="100%"
             height="100%" />
          <use
             xlink:href="#symbol2631"
             x="320.73648"
             y="135.761"
             id="use9836"
             width="100%"
             height="100%" />
        </g>
        <g
           style="fill:#000000;fill-opacity:1"
           id="g4269">
          <use
             xlink:href="#symbol2635"
             x="346.88831"
             y="135.761"
             id="use4786"
             width="100%"
             height="100%" />
          <use
             xlink:href="#symbol5028"
             x="352.11865"
             y="135.761"
             id="use8872"
             width="100%"
             height="100%" />
          <use
             xlink:href="#symbol506"
             x="357.34903"
             y="135.761"
             id="use2399"
             width="100%"
             height="100%" />
          <use
             xlink:href="#symbol6619"
             x="362.57941"
             y="135.761"
             id="use4612"
             width="100%"
             height="100%" />
        </g>
      </g>
    </g>
  </g>
</svg>
