<?xml version="1.0" encoding="UTF-8" standalone="no"?>
<!-- Created with Inkscape (http://www.inkscape.org/) -->

<svg
   width="15mm"
   height="15mm"
   viewBox="0 0 15 15"
   version="1.1"
   id="svg5"
   sodipodi:docname="infoicon.svg"
   inkscape:version="1.2 (1:1.2.1+202207142221+cd75a1ee6d)"
   xmlns:inkscape="http://www.inkscape.org/namespaces/inkscape"
   xmlns:sodipodi="http://sodipodi.sourceforge.net/DTD/sodipodi-0.dtd"
   xmlns="http://www.w3.org/2000/svg"
   xmlns:svg="http://www.w3.org/2000/svg">
  <sodipodi:namedview
     id="namedview7"
     pagecolor="#ffffff"
     bordercolor="#666666"
     borderopacity="1.0"
     inkscape:showpageshadow="2"
     inkscape:pageopacity="0.0"
     inkscape:pagecheckerboard="0"
     inkscape:deskcolor="#d1d1d1"
     inkscape:document-units="mm"
     showgrid="false"
     inkscape:zoom="4.5405223"
     inkscape:cx="0.88095592"
     inkscape:cy="59.464525"
     inkscape:window-width="1920"
     inkscape:window-height="1043"
     inkscape:window-x="1920"
     inkscape:window-y="0"
     inkscape:window-maximized="1"
     inkscape:current-layer="layer1" />
  <defs
     id="defs2">
    <inkscape:path-effect
       effect="powerclip"
       id="path-effect3751"
       is_visible="true"
       lpeversion="1"
       inverse="true"
       flatten="false"
       hide_clip="false"
       message="Use fill-rule evenodd on &lt;b&gt;fill and stroke&lt;/b&gt; dialog if no flatten result after convert clip to paths." />
    <clipPath
       clipPathUnits="userSpaceOnUse"
       id="clipPath3745">
      <g
         aria-label="i"
         id="g3749"
         style="font-weight:bold;font-size:12.7px;line-height:1.25;font-family:'DejaVu Serif';-inkscape-font-specification:'DejaVu Serif, Bold';font-variant-ligatures:none;letter-spacing:0px;word-spacing:0px;display:none;fill:#fefefe;stroke-width:0.264583">
        <path
           d="m 57.442737,22.157132 q 0,-0.502295 0.347265,-0.84336 0.347266,-0.347265 0.849561,-0.347265 0.489893,0 0.830957,0.347265 0.347266,0.341065 0.347266,0.84336 0,0.489892 -0.347266,0.837158 -0.341064,0.341064 -0.830957,0.341064 -0.502295,0 -0.849561,-0.341064 -0.347265,-0.341065 -0.347265,-0.837158 z m 2.399853,7.708056 h 0.942578 v 0.750342 h -4.074169 v -0.750342 h 0.936376 v -5.091162 h -0.936376 v -0.750342 h 3.131591 z"
           id="path3747"
           style="stroke-width:0.264583" />
      </g>
      <path
         id="lpe_path-effect3751"
         style="font-weight:bold;font-size:12.7px;line-height:1.25;font-family:'DejaVu Serif';-inkscape-font-specification:'DejaVu Serif, Bold';font-variant-ligatures:none;letter-spacing:0px;word-spacing:0px;fill:#fefefe;stroke-width:0.264583"
         class="powerclip"
         d="m 46.248085,13.291018 h 25 v 25 h -25 z m 11.194652,8.866114 q 0,0.496093 0.347265,0.837158 0.347266,0.341064 0.849561,0.341064 0.489893,0 0.830957,-0.341064 0.347266,-0.347266 0.347266,-0.837158 0,-0.502295 -0.347266,-0.84336 -0.341064,-0.347265 -0.830957,-0.347265 -0.502295,0 -0.849561,0.347265 -0.347265,0.341065 -0.347265,0.84336 z m 2.399853,7.708056 v -5.841504 h -3.131591 v 0.750342 h 0.936376 v 5.091162 h -0.936376 v 0.750342 h 4.074169 v -0.750342 z" />
    </clipPath>
  </defs>
  <g
     inkscape:label="Layer 1"
     inkscape:groupmode="layer"
     id="layer1"
     transform="translate(-43.304426,-16.05889)">
    <path
       style="fill:#2f86a2;fill-opacity:1;stroke:none;stroke-width:2;stroke-dasharray:none;stroke-opacity:1"
       id="path234"
       clip-path="url(#clipPath3745)"
       inkscape:path-effect="#path-effect3751"
       sodipodi:type="arc"
       sodipodi:cx="58.748085"
       sodipodi:cy="25.791018"
       sodipodi:rx="7.5"
       sodipodi:ry="7.5"
       d="m 66.248085,25.791018 a 7.5,7.5 0 0 1 -7.5,7.5 7.5,7.5 0 0 1 -7.5,-7.5 7.5,7.5 0 0 1 7.5,-7.5 7.5,7.5 0 0 1 7.5,7.5 z"
       transform="translate(-7.9436589,-2.2321274)" />
  </g>
</svg>
