<?xml version="1.0" encoding="UTF-8" standalone="no"?>
<!-- Created with Inkscape (http://www.inkscape.org/) -->

<svg
   width="67.598244mm"
   height="54.474499mm"
   viewBox="0 0 67.598244 54.474499"
   version="1.1"
   id="svg1604"
   inkscape:version="1.2 (1:1.2.1+202207142221+cd75a1ee6d)"
   sodipodi:docname="ingo.svg"
   xmlns:inkscape="http://www.inkscape.org/namespaces/inkscape"
   xmlns:sodipodi="http://sodipodi.sourceforge.net/DTD/sodipodi-0.dtd"
   xmlns="http://www.w3.org/2000/svg"
   xmlns:svg="http://www.w3.org/2000/svg">
  <sodipodi:namedview
     id="namedview1606"
     pagecolor="#ffffff"
     bordercolor="#666666"
     borderopacity="1.0"
     inkscape:showpageshadow="2"
     inkscape:pageopacity="0.0"
     inkscape:pagecheckerboard="0"
     inkscape:deskcolor="#d1d1d1"
     inkscape:document-units="mm"
     showgrid="false"
     inkscape:zoom="0.80265853"
     inkscape:cx="272.8433"
     inkscape:cy="262.87642"
     inkscape:window-width="1920"
     inkscape:window-height="1043"
     inkscape:window-x="1920"
     inkscape:window-y="0"
     inkscape:window-maximized="1"
     inkscape:current-layer="layer1" />
  <defs
     id="defs1601" />
  <g
     inkscape:label="Layer 1"
     inkscape:groupmode="layer"
     id="layer1">
    <g
       id="g910"
       transform="translate(-53.704728,-69.731842)">
      <ellipse
         style="fill:#262626;fill-opacity:1;stroke:none;stroke-width:0.265;stroke-miterlimit:4;stroke-dasharray:none;stroke-opacity:1"
         id="path836"
         cx="112.43281"
         cy="122.57632"
         rx="5.1971722"
         ry="0.73232883" />
      <path
         id="path863"
         transform="scale(0.26458333)"
         d="m 356.83594,339.9043 -10.60547,0.25195 -9.84961,1.00977 -1.51563,9.09179 c 0,0 4.293,-4.79791 9.34375,31.0625 5.05076,35.86042 -1.00976,72.73047 -1.00976,72.73047 l -3.20899,5.04492 c -18.00212,3.33704 -42.95233,10.20118 -32.14648,8.5918 11.86929,-1.76776 26.89648,-4.54492 26.89648,-4.54492 3.283,-2.65164 4.41859,3.78889 14.26758,3.03125 9.84899,-0.75761 34.21875,2.65039 34.21875,2.65039 -2.02031,-4.79822 -32.70312,-5.9336 -32.70312,-5.9336 l -0.13086,-1.08593 c 1.43056,-4.43309 29.94336,-2.07617 29.94336,-2.07617 0,0 16.2183,3.78522 2.36523,-2.11133 -19.74605,-3.4433 -27.25643,-0.71101 -32.76953,0.33593 l -0.16602,-1.37695 c 0,0 0.25136,-10.85901 0.50391,-27.02148 0.25253,-16.16243 6.56641,-66.92188 6.56641,-66.92188 l 6.06054,-17.17383 -0.25195,-2.77734 z"
         style="fill:#ffc2d2;fill-opacity:1;stroke:#000000;stroke-width:1px;stroke-linecap:butt;stroke-linejoin:miter;stroke-opacity:1"
         inkscape:connector-curvature="0" />
      <path
         style="fill:#ff8add;fill-opacity:1;stroke:#001200;stroke-width:1.00157;stroke-linecap:butt;stroke-linejoin:miter;stroke-miterlimit:4;stroke-dasharray:none;stroke-opacity:1"
         d="m 49.138672,0.51367188 c -2.679094,0.0665875 -5.347269,0.47369667 -7.91211,1.34179692 0,0 19.697076,5.0504134 21.464844,11.1113282 0,0 -36.871136,-4.5462449 -49.498047,7.828125 0,0 47.226174,-2.020296 48.236329,2.52539 0,0 -48.48813,5.051433 -60.3574224,22.476563 0,0 36.8717264,-6.09525 56.8906254,-12.755859 -8.333316,4.34483 -18.869563,13.298514 -12.191407,29.423828 0,0 21.971494,-32.074198 25.001954,-27.023438 l 7.052734,10.634766 c 66.940548,100.320188 116.310548,9.695312 116.310548,9.695312 13.75532,-21.082749 43.17644,4.990222 43.7832,9.59375 2.64733,20.08616 -34.9457,32.409656 -48.95898,50.636716 -18.05649,23.48606 8.71289,53.53711 8.71289,53.53711 0,0 22.61714,19.69007 15.89704,29.23633 0,0 3.48816,1.65622 8.26479,1.71211 5.13245,0.0601 8.16379,-1.46937 8.16379,-1.46937 -0.53837,-0.64456 -9.29683,-18.08974 -9.86468,-18.79743 -13.03571,-15.89287 -39.77261,-41.22905 -17.45118,-63.19336 11.07296,-10.89576 54.59799,-36.010707 52.20899,-52.466793 -2.42687,-16.716953 -36.71815,-39.688667 -70.01367,-52.376953 0,0 -44.15237,-20.9352809 -106.529301,-2.5000002 0,0 -14.743829,-9.52949439 -29.210937,-9.16992192 z"
         id="path826"
         inkscape:connector-curvature="0"
         sodipodi:nodetypes="scccccccccccsccscccsccs"
         transform="matrix(0.26458333,0,0,0.26458333,53.70477,69.731076)" />
    </g>
  </g>
</svg>
