<?xml version="1.0" encoding="UTF-8" standalone="no"?>
<!-- Created with Inkscape (http://www.inkscape.org/) -->

<svg
   width="88.07605mm"
   height="52.534325mm"
   viewBox="0 0 88.07605 52.534325"
   version="1.1"
   id="svg201423"
   sodipodi:docname="sheet7-exercise3-markov.svg"
   inkscape:version="1.1.1 (1:1.1+202109281949+c3084ef5ed)"
   xmlns:inkscape="http://www.inkscape.org/namespaces/inkscape"
   xmlns:sodipodi="http://sodipodi.sourceforge.net/DTD/sodipodi-0.dtd"
   xmlns:xlink="http://www.w3.org/1999/xlink"
   xmlns="http://www.w3.org/2000/svg"
   xmlns:svg="http://www.w3.org/2000/svg">
  <sodipodi:namedview
     id="namedview201425"
     pagecolor="#ffffff"
     bordercolor="#666666"
     borderopacity="1.0"
     inkscape:pageshadow="2"
     inkscape:pageopacity="0.0"
     inkscape:pagecheckerboard="0"
     inkscape:document-units="mm"
     showgrid="false"
     inkscape:zoom="0.75187991"
     inkscape:cx="216.12494"
     inkscape:cy="178.88495"
     inkscape:window-width="1848"
     inkscape:window-height="1016"
     inkscape:window-x="72"
     inkscape:window-y="27"
     inkscape:window-maximized="1"
     inkscape:current-layer="layer1"
     fit-margin-top="0"
     fit-margin-left="0"
     fit-margin-right="0"
     fit-margin-bottom="0" />
  <defs
     id="defs201420">
    <g
       id="g8559">
      <symbol
         overflow="visible"
         id="symbol21">
        <path
           style="stroke:none"
           d=""
           id="path3399" />
      </symbol>
      <symbol
         overflow="visible"
         id="symbol9064">
        <path
           style="stroke:none"
           d="M 3.015625,-3.15625 H 4.71875 c 1.40625,0 2.796875,-1.03125 2.796875,-2.140625 0,-0.78125 -0.65625,-1.515625 -1.96875,-1.515625 h -3.21875 c -0.1875,0 -0.296875,0 -0.296875,0.1875 0,0.125 0.078125,0.125 0.28125,0.125 0.125,0 0.3125,0.015625 0.421875,0.015625 0.171875,0.03125 0.21875,0.046875 0.21875,0.171875 0,0.03125 0,0.0625 -0.03125,0.1875 l -1.34375,5.34375 c -0.09375,0.390625 -0.109375,0.46875 -0.90625,0.46875 -0.15625,0 -0.265625,0 -0.265625,0.1875 C 0.40625,0 0.515625,0 0.546875,0 0.828125,0 1.53125,-0.03125 1.8125,-0.03125 c 0.21875,0 0.4375,0.015625 0.640625,0.015625 0.21875,0 0.4375,0.015625 0.640625,0.015625 0.078125,0 0.203125,0 0.203125,-0.203125 0,-0.109375 -0.09375,-0.109375 -0.28125,-0.109375 -0.359375,0 -0.640625,0 -0.640625,-0.171875 0,-0.0625 0.015625,-0.109375 0.03125,-0.171875 z M 3.734375,-6.125 C 3.828125,-6.46875 3.84375,-6.5 4.28125,-6.5 h 0.953125 c 0.828125,0 1.359375,0.265625 1.359375,0.953125 0,0.390625 -0.203125,1.25 -0.59375,1.609375 -0.5,0.453125 -1.09375,0.53125 -1.53125,0.53125 H 3.0625 Z m 0,0"
           id="path6375" />
      </symbol>
      <symbol
         overflow="visible"
         id="symbol9995">
        <path
           style="stroke:none"
           d=""
           id="path1142" />
      </symbol>
      <symbol
         overflow="visible"
         id="symbol4240">
        <path
           style="stroke:none"
           d="m 6.84375,-3.265625 c 0.15625,0 0.34375,0 0.34375,-0.1875 C 7.1875,-3.65625 7,-3.65625 6.859375,-3.65625 h -5.96875 c -0.140625,0 -0.328125,0 -0.328125,0.203125 0,0.1875 0.1875,0.1875 0.328125,0.1875 z m 0.015625,1.9375 c 0.140625,0 0.328125,0 0.328125,-0.203125 0,-0.1875 -0.1875,-0.1875 -0.34375,-0.1875 H 0.890625 c -0.140625,0 -0.328125,0 -0.328125,0.1875 0,0.203125 0.1875,0.203125 0.328125,0.203125 z m 0,0"
           id="path8451" />
      </symbol>
      <symbol
         overflow="visible"
         id="symbol8789">
        <path
           style="stroke:none"
           d="m 4.578125,-3.1875 c 0,-0.796875 -0.046875,-1.59375 -0.390625,-2.328125 -0.453125,-0.96875 -1.28125,-1.125 -1.6875,-1.125 -0.609375,0 -1.328125,0.265625 -1.75,1.1875 -0.3125,0.6875 -0.359375,1.46875 -0.359375,2.265625 0,0.75 0.03125,1.640625 0.453125,2.40625 0.421875,0.796875 1.15625,1 1.640625,1 0.53125,0 1.296875,-0.203125 1.734375,-1.15625 0.3125,-0.6875 0.359375,-1.46875 0.359375,-2.25 z M 2.484375,0 C 2.09375,0 1.5,-0.25 1.328125,-1.203125 1.21875,-1.796875 1.21875,-2.71875 1.21875,-3.3125 c 0,-0.640625 0,-1.296875 0.078125,-1.828125 0.1875,-1.1875 0.9375,-1.28125 1.1875,-1.28125 0.328125,0 0.984375,0.1875 1.171875,1.171875 0.109375,0.5625 0.109375,1.3125 0.109375,1.9375 0,0.75 0,1.421875 -0.109375,2.0625 C 3.5,-0.296875 2.9375,0 2.484375,0 Z m 0,0"
           id="path9350" />
      </symbol>
      <symbol
         overflow="visible"
         id="symbol963">
        <path
           style="stroke:none"
           d="m 2.9375,-6.375 c 0,-0.25 0,-0.265625 -0.234375,-0.265625 C 2.078125,-6 1.203125,-6 0.890625,-6 v 0.3125 c 0.203125,0 0.78125,0 1.296875,-0.265625 v 5.171875 c 0,0.359375 -0.03125,0.46875 -0.921875,0.46875 h -0.3125 V 0 c 0.34375,-0.03125 1.203125,-0.03125 1.609375,-0.03125 0.390625,0 1.265625,0 1.609375,0.03125 v -0.3125 h -0.3125 c -0.90625,0 -0.921875,-0.109375 -0.921875,-0.46875 z m 0,0"
           id="path99" />
      </symbol>
      <symbol
         overflow="visible"
         id="symbol6370">
        <path
           style="stroke:none"
           d=""
           id="path3526" />
      </symbol>
      <symbol
         overflow="visible"
         id="symbol2902">
        <path
           style="stroke:none"
           d="M 3.734375,17.640625 C 3.953125,17.640625 4,17.640625 4,17.5 4.03125,10.515625 4.828125,4.71875 8.328125,-0.15625 c 0.0625,-0.09375 0.0625,-0.109375 0.0625,-0.140625 0,-0.09375 -0.0625,-0.09375 -0.21875,-0.09375 -0.171875,0 -0.1875,0 -0.203125,0.015625 -0.046875,0.03125 -1.3125,1.484375 -2.3125,3.5 -1.3125,2.625 -2.140625,5.640625 -2.515625,9.28125 -0.03125,0.296875 -0.234375,2.375 -0.234375,4.734375 v 0.390625 c 0,0.109375 0.0625,0.109375 0.28125,0.109375 z m 0,0"
           id="path6750" />
      </symbol>
      <symbol
         overflow="visible"
         id="symbol131">
        <path
           style="stroke:none"
           d="M 4,0.171875 C 4,-0.09375 4,-0.09375 3.734375,-0.09375 H 3.1875 c -0.28125,0 -0.28125,0 -0.28125,0.265625 V 5.8125 c 0,0.265625 0,0.265625 0.28125,0.265625 H 3.734375 C 4,6.078125 4,6.078125 4,5.8125 Z m 0,0"
           id="path5420" />
      </symbol>
      <symbol
         overflow="visible"
         id="symbol2317">
        <path
           style="stroke:none"
           d="m 3.1875,-0.5 c -0.21875,0 -0.28125,0 -0.28125,0.109375 V 0 c 0,6.09375 1.078125,9.65625 1.390625,10.671875 C 4.96875,12.875 6.078125,15.21875 7.75,17.265625 7.890625,17.453125 7.9375,17.5 7.96875,17.515625 8,17.53125 8,17.53125 8.171875,17.53125 c 0.15625,0 0.21875,0 0.21875,-0.09375 0,-0.01563 0,-0.04687 -0.0625,-0.125 C 5.015625,12.703125 4.015625,7.15625 4,-0.359375 4,-0.5 3.953125,-0.5 3.734375,-0.5 Z m 0,0"
           id="path5249" />
      </symbol>
      <symbol
         overflow="visible"
         id="symbol1891">
        <path
           style="stroke:none"
           d="M 5.8125,17.140625 C 5.8125,11.0625 4.71875,7.484375 4.421875,6.484375 3.734375,4.265625 2.625,1.9375 0.96875,-0.125 0.8125,-0.296875 0.78125,-0.34375 0.734375,-0.375 c -0.015625,0 -0.03125,-0.015625 -0.1875,-0.015625 -0.140625,0 -0.234375,0 -0.234375,0.09375 0,0.03125 0,0.046875 0.140625,0.234375 3.46875,4.84375 4.234375,10.8125 4.25,17.5625 0,0.140625 0.0625,0.140625 0.28125,0.140625 H 5.53125 c 0.203125,0 0.265625,0 0.28125,-0.109375 z m 0,0"
           id="path1514" />
      </symbol>
      <symbol
         overflow="visible"
         id="symbol915">
        <path
           style="stroke:none"
           d="M 5.8125,0.171875 C 5.8125,-0.09375 5.796875,-0.09375 5.53125,-0.09375 H 4.984375 c -0.265625,0 -0.28125,0 -0.28125,0.265625 V 5.8125 c 0,0.265625 0.015625,0.265625 0.28125,0.265625 H 5.53125 c 0.265625,0 0.28125,0 0.28125,-0.265625 z m 0,0"
           id="path8161" />
      </symbol>
      <symbol
         overflow="visible"
         id="symbol1287">
        <path
           style="stroke:none"
           d="M 5.8125,-0.390625 C 5.796875,-0.5 5.734375,-0.5 5.53125,-0.5 H 4.984375 c -0.21875,0 -0.28125,0 -0.28125,0.140625 0,1.03125 -0.015625,3.40625 -0.265625,5.875 C 3.890625,10.671875 2.578125,14.25 0.390625,17.3125 0.3125,17.390625 0.3125,17.421875 0.3125,17.4375 c 0,0.09375 0.09375,0.09375 0.234375,0.09375 0.15625,0 0.1875,0 0.203125,-0.01563 C 0.78125,17.484375 2.046875,16.03125 3.0625,14.03125 4.375,11.390625 5.203125,8.375 5.578125,4.75 5.609375,4.4375 5.8125,2.359375 5.8125,0 Z m 0,0"
           id="path5204" />
      </symbol>
      <symbol
         overflow="visible"
         id="symbol1302">
        <path
           style="stroke:none"
           d=""
           id="path7556" />
      </symbol>
      <symbol
         overflow="visible"
         id="symbol4461">
        <path
           style="stroke:none"
           d="m 2.328125,-4.4375 c 0,-0.1875 0,-0.1875 -0.203125,-0.1875 -0.453125,0.4375 -1.078125,0.4375 -1.359375,0.4375 v 0.25 c 0.15625,0 0.625,0 1,-0.1875 v 3.546875 c 0,0.234375 0,0.328125 -0.6875,0.328125 H 0.8125 V 0 c 0.125,0 0.984375,-0.03125 1.234375,-0.03125 0.21875,0 1.09375,0.03125 1.25,0.03125 V -0.25 H 3.03125 c -0.703125,0 -0.703125,-0.09375 -0.703125,-0.328125 z m 0,0"
           id="path5775" />
      </symbol>
      <symbol
         overflow="visible"
         id="symbol8912">
        <path
           style="stroke:none"
           d="m 1.90625,-2.328125 c 0.546875,0 0.9375,0.375 0.9375,1.125 0,0.859375 -0.515625,1.125 -0.90625,1.125 -0.28125,0 -0.90625,-0.078125 -1.1875,-0.5 0.328125,0 0.40625,-0.234375 0.40625,-0.390625 0,-0.21875 -0.171875,-0.375 -0.390625,-0.375 -0.1875,0 -0.390625,0.125 -0.390625,0.40625 0,0.65625 0.71875,1.078125 1.5625,1.078125 0.96875,0 1.640625,-0.65625 1.640625,-1.34375 0,-0.546875 -0.4375,-1.09375 -1.203125,-1.25 0.71875,-0.265625 0.984375,-0.78125 0.984375,-1.21875 0,-0.546875 -0.625,-0.953125 -1.40625,-0.953125 -0.765625,0 -1.359375,0.375 -1.359375,0.9375 0,0.234375 0.15625,0.359375 0.359375,0.359375 0.21875,0 0.359375,-0.15625 0.359375,-0.34375 0,-0.203125 -0.140625,-0.359375 -0.359375,-0.375 0.25,-0.296875 0.71875,-0.375 0.984375,-0.375 0.3125,0 0.75,0.15625 0.75,0.75 0,0.296875 -0.09375,0.625 -0.28125,0.828125 -0.21875,0.265625 -0.421875,0.28125 -0.765625,0.3125 -0.171875,0.015625 -0.1875,0.015625 -0.21875,0.015625 -0.015625,0 -0.078125,0.015625 -0.078125,0.09375 0,0.09375 0.0625,0.09375 0.1875,0.09375 z m 0,0"
           id="path2201" />
      </symbol>
      <symbol
         overflow="visible"
         id="symbol6008">
        <path
           style="stroke:none"
           d="M 3.515625,-1.265625 H 3.28125 c -0.015625,0.15625 -0.09375,0.5625 -0.1875,0.625 C 3.046875,-0.59375 2.515625,-0.59375 2.40625,-0.59375 H 1.125 c 0.734375,-0.640625 0.984375,-0.84375 1.390625,-1.171875 0.515625,-0.40625 1,-0.84375 1,-1.5 0,-0.84375 -0.734375,-1.359375 -1.625,-1.359375 -0.859375,0 -1.453125,0.609375 -1.453125,1.25 0,0.34375 0.296875,0.390625 0.375,0.390625 0.15625,0 0.359375,-0.125 0.359375,-0.375 0,-0.125 -0.046875,-0.375 -0.40625,-0.375 C 0.984375,-4.21875 1.453125,-4.375 1.78125,-4.375 c 0.703125,0 1.0625,0.546875 1.0625,1.109375 0,0.609375 -0.4375,1.078125 -0.65625,1.328125 L 0.515625,-0.265625 C 0.4375,-0.203125 0.4375,-0.1875 0.4375,0 h 2.875 z m 0,0"
           id="path5884" />
      </symbol>
    </g>
  </defs>
  <g
     inkscape:label="Layer 1"
     inkscape:groupmode="layer"
     id="layer1"
     transform="translate(-47.74593,-17.051147)">
    <rect
       style="fill:#ffffff;stroke-width:0.600001"
       id="rect202035"
       width="88.07605"
       height="52.534325"
       x="47.74593"
       y="17.051147" />
    <g
       inkscape:label=""
       transform="translate(-34.963924,-49.606003)"
       id="g201914">
      <g
         id="g5066">
        <g
           style="fill:#000000;fill-opacity:1"
           id="g7048">
          <use
             xlink:href="#symbol9064"
             x="91.925003"
             y="95.413002"
             id="use5528"
             width="100%"
             height="100%" />
        </g>
        <g
           style="fill:#000000;fill-opacity:1"
           id="g4622">
          <use
             xlink:href="#symbol4240"
             x="102.472"
             y="95.413002"
             id="use4746"
             width="100%"
             height="100%" />
        </g>
        <g
           style="fill:#000000;fill-opacity:1"
           id="g4535">
          <use
             xlink:href="#symbol2902"
             x="112.989"
             y="72.399002"
             id="use4799"
             width="100%"
             height="100%" />
        </g>
        <g
           style="fill:#000000;fill-opacity:1"
           id="g1942">
          <use
             xlink:href="#symbol131"
             x="112.989"
             y="89.932999"
             id="use4998"
             width="100%"
             height="100%" />
        </g>
        <g
           style="fill:#000000;fill-opacity:1"
           id="g6374">
          <use
             xlink:href="#symbol2317"
             x="112.989"
             y="96.308998"
             id="use8192"
             width="100%"
             height="100%" />
        </g>
        <g
           style="fill:#000000;fill-opacity:1"
           id="g9559">
          <use
             xlink:href="#symbol8789"
             x="122.396"
             y="81.341003"
             id="use8323"
             width="100%"
             height="100%" />
        </g>
        <g
           style="fill:#000000;fill-opacity:1"
           id="g2406">
          <use
             xlink:href="#symbol963"
             x="136.03481"
             y="81.341003"
             id="use3799"
             width="100%"
             height="100%" />
        </g>
        <g
           style="fill:#000000;fill-opacity:1"
           id="g4571">
          <use
             xlink:href="#symbol8789"
             x="149.68356"
             y="81.341003"
             id="use2734"
             width="100%"
             height="100%" />
        </g>
        <g
           style="fill:#000000;fill-opacity:1"
           id="g5402">
          <use
             xlink:href="#symbol4461"
             x="122.901"
             y="91.414001"
             id="use8237"
             width="100%"
             height="100%" />
        </g>
        <path
           style="fill:none;stroke:#000000;stroke-width:0.398;stroke-linecap:butt;stroke-linejoin:miter;stroke-miterlimit:10;stroke-opacity:1"
           d="M 0.00134375,-0.00165625 H 3.970094"
           transform="matrix(1,0,0,-1,122.901,92.846)"
           id="path7358" />
        <g
           style="fill:#000000;fill-opacity:1"
           id="g8756">
          <use
             xlink:href="#symbol8912"
             x="122.901"
             y="98.773003"
             id="use5263"
             width="100%"
             height="100%" />
        </g>
        <g
           style="fill:#000000;fill-opacity:1"
           id="g7485">
          <use
             xlink:href="#symbol8789"
             x="136.03799"
             y="95.336998"
             id="use7503"
             width="100%"
             height="100%" />
        </g>
        <g
           style="fill:#000000;fill-opacity:1"
           id="g3991">
          <use
             xlink:href="#symbol6008"
             x="150.185"
             y="91.415001"
             id="use3126"
             width="100%"
             height="100%" />
        </g>
        <path
           style="fill:none;stroke:#000000;stroke-width:0.398;stroke-linecap:butt;stroke-linejoin:miter;stroke-miterlimit:10;stroke-opacity:1"
           d="M -0.00140625,-0.00165625 H 3.97125"
           transform="matrix(1,0,0,-1,150.185,92.846)"
           id="path18" />
        <g
           style="fill:#000000;fill-opacity:1"
           id="g2839">
          <use
             xlink:href="#symbol8912"
             x="150.185"
             y="98.773003"
             id="use6676"
             width="100%"
             height="100%" />
        </g>
        <g
           style="fill:#000000;fill-opacity:1"
           id="g4632">
          <use
             xlink:href="#symbol8789"
             x="122.396"
             y="109.285"
             id="use4040"
             width="100%"
             height="100%" />
        </g>
        <g
           style="fill:#000000;fill-opacity:1"
           id="g2663">
          <use
             xlink:href="#symbol963"
             x="136.03481"
             y="109.285"
             id="use3242"
             width="100%"
             height="100%" />
        </g>
        <g
           style="fill:#000000;fill-opacity:1"
           id="g9953">
          <use
             xlink:href="#symbol8789"
             x="149.68356"
             y="109.285"
             id="use7931"
             width="100%"
             height="100%" />
        </g>
        <g
           style="fill:#000000;fill-opacity:1"
           id="g9531">
          <use
             xlink:href="#symbol1891"
             x="155.35201"
             y="72.399002"
             id="use4969"
             width="100%"
             height="100%" />
        </g>
        <g
           style="fill:#000000;fill-opacity:1"
           id="g7043">
          <use
             xlink:href="#symbol915"
             x="155.35201"
             y="89.932999"
             id="use3981"
             width="100%"
             height="100%" />
        </g>
        <g
           style="fill:#000000;fill-opacity:1"
           id="g1020">
          <use
             xlink:href="#symbol1287"
             x="155.35201"
             y="96.308998"
             id="use567"
             width="100%"
             height="100%" />
        </g>
      </g>
    </g>
  </g>
</svg>
