<?xml version="1.0" encoding="UTF-8" standalone="no"?>
<!-- Created with Inkscape (http://www.inkscape.org/) -->

<svg
   id="svg4021"
   version="1.1"
   viewBox="0 0 65.129387 18.90263"
   height="18.90263mm"
   width="65.129387mm"
   sodipodi:docname="exercise3-reversibility_check.svg"
   inkscape:version="1.1.1 (1:1.1+202109281949+c3084ef5ed)"
   xmlns:inkscape="http://www.inkscape.org/namespaces/inkscape"
   xmlns:sodipodi="http://sodipodi.sourceforge.net/DTD/sodipodi-0.dtd"
   xmlns:xlink="http://www.w3.org/1999/xlink"
   xmlns="http://www.w3.org/2000/svg"
   xmlns:svg="http://www.w3.org/2000/svg">
  <sodipodi:namedview
     id="namedview4023"
     pagecolor="#ffffff"
     bordercolor="#666666"
     borderopacity="1.0"
     inkscape:pageshadow="2"
     inkscape:pageopacity="0.0"
     inkscape:pagecheckerboard="0"
     inkscape:document-units="mm"
     showgrid="false"
     inkscape:zoom="2.1266375"
     inkscape:cx="77.822383"
     inkscape:cy="102.27413"
     inkscape:window-width="1848"
     inkscape:window-height="1016"
     inkscape:window-x="72"
     inkscape:window-y="27"
     inkscape:window-maximized="1"
     inkscape:current-layer="layer1"
     fit-margin-top="0"
     fit-margin-left="0"
     fit-margin-right="0"
     fit-margin-bottom="0" />
  <defs
     id="defs4018">
    <g
       id="g9504">
      <symbol
         overflow="visible"
         id="symbol6169">
        <path
           style="stroke:none"
           d=""
           id="path7350" />
      </symbol>
      <symbol
         overflow="visible"
         id="symbol750">
        <path
           style="stroke:none"
           d="m 2.640625,-3.71875 h 1.125 C 3.4375,-2.25 3.34375,-1.8125 3.34375,-1.140625 c 0,0.140625 0,0.40625 0.078125,0.75 0.109375,0.4375 0.21875,0.5 0.359375,0.5 0.203125,0 0.421875,-0.171875 0.421875,-0.375 0,-0.0625 0,-0.078125 -0.0625,-0.21875 -0.296875,-0.71875 -0.296875,-1.375 -0.296875,-1.65625 0,-0.515625 0.078125,-1.0625 0.1875,-1.578125 h 1.125 c 0.140625,0 0.5,0 0.5,-0.34375 0,-0.234375 -0.21875,-0.234375 -0.40625,-0.234375 H 1.90625 c -0.21875,0 -0.59375,0 -1.03125,0.46875 -0.34375,0.390625 -0.609375,0.84375 -0.609375,0.890625 0,0.015625 0,0.109375 0.125,0.109375 0.078125,0 0.09375,-0.046875 0.15625,-0.125 C 1.03125,-3.71875 1.609375,-3.71875 1.8125,-3.71875 H 2.375 C 2.0625,-2.515625 1.53125,-1.3125 1.109375,-0.40625 1.03125,-0.25 1.03125,-0.234375 1.03125,-0.15625 c 0,0.1875 0.15625,0.265625 0.28125,0.265625 0.296875,0 0.375,-0.28125 0.5,-0.640625 C 1.953125,-1 1.953125,-1.015625 2.078125,-1.515625 Z m 0,0"
           id="path6175" />
      </symbol>
      <symbol
         overflow="visible"
         id="symbol7215">
        <path
           style="stroke:none"
           d="M 0.453125,1.21875 C 0.375,1.5625 0.34375,1.625 -0.09375,1.625 c -0.109375,0 -0.21875,0 -0.21875,0.1875 0,0.078125 0.046875,0.125 0.125,0.125 0.265625,0 0.5625,-0.03125 0.828125,-0.03125 0.34375,0 0.671875,0.03125 1,0.03125 0.046875,0 0.171875,0 0.171875,-0.203125 C 1.8125,1.625 1.71875,1.625 1.578125,1.625 c -0.5,0 -0.5,-0.0625 -0.5,-0.15625 0,-0.125 0.421875,-1.75 0.484375,-2 0.125,0.296875 0.40625,0.640625 0.921875,0.640625 1.15625,0 2.40625,-1.453125 2.40625,-2.921875 0,-0.9375 -0.578125,-1.59375 -1.328125,-1.59375 -0.5,0 -0.984375,0.359375 -1.3125,0.75 -0.09375,-0.546875 -0.53125,-0.75 -0.890625,-0.75 -0.46875,0 -0.65625,0.390625 -0.734375,0.5625 C 0.4375,-3.5 0.3125,-2.90625 0.3125,-2.875 c 0,0.109375 0.09375,0.109375 0.109375,0.109375 0.109375,0 0.109375,-0.015625 0.171875,-0.234375 0.171875,-0.703125 0.375,-1.1875 0.734375,-1.1875 0.171875,0 0.3125,0.078125 0.3125,0.453125 0,0.234375 -0.03125,0.34375 -0.078125,0.515625 z m 1.75,-4.328125 C 2.265625,-3.375 2.546875,-3.65625 2.71875,-3.8125 c 0.359375,-0.296875 0.640625,-0.375 0.8125,-0.375 0.390625,0 0.640625,0.34375 0.640625,0.9375 0,0.59375 -0.328125,1.734375 -0.515625,2.109375 -0.34375,0.703125 -0.8125,1.03125 -1.1875,1.03125 C 1.8125,-0.109375 1.6875,-0.9375 1.6875,-1 c 0,-0.015625 0,-0.03125 0.03125,-0.15625 z m 0,0"
           id="path9148" />
      </symbol>
      <symbol
         overflow="visible"
         id="symbol4385">
        <path
           style="stroke:none"
           d=""
           id="path3483" />
      </symbol>
      <symbol
         overflow="visible"
         id="symbol6861">
        <path
           style="stroke:none"
           d="m 2.25,-1.734375 c 0.578125,-0.25 0.828125,-0.34375 1,-0.4375 0.140625,-0.046875 0.203125,-0.078125 0.203125,-0.21875 0,-0.109375 -0.09375,-0.21875 -0.21875,-0.21875 -0.046875,0 -0.0625,0 -0.140625,0.0625 L 2.140625,-1.90625 2.25,-2.9375 c 0.015625,-0.125 0,-0.296875 -0.21875,-0.296875 -0.078125,0 -0.21875,0.046875 -0.21875,0.203125 0,0.0625 0.03125,0.265625 0.046875,0.34375 0.015625,0.109375 0.0625,0.625 0.078125,0.78125 L 0.984375,-2.546875 c -0.0625,-0.03125 -0.078125,-0.0625 -0.140625,-0.0625 -0.140625,0 -0.21875,0.109375 -0.21875,0.21875 0,0.140625 0.078125,0.1875 0.140625,0.203125 L 1.8125,-1.734375 c -0.5625,0.25 -0.828125,0.34375 -1,0.421875 -0.125,0.0625 -0.1875,0.09375 -0.1875,0.21875 0,0.125 0.078125,0.21875 0.21875,0.21875 0.046875,0 0.0625,0 0.140625,-0.0625 l 0.953125,-0.625 -0.125,1.109375 c 0,0.15625 0.140625,0.21875 0.21875,0.21875 0.09375,0 0.21875,-0.0625 0.21875,-0.21875 0,-0.0625 -0.03125,-0.265625 -0.03125,-0.328125 -0.015625,-0.125 -0.0625,-0.625 -0.078125,-0.78125 L 2.96875,-1.015625 C 3.15625,-0.875 3.171875,-0.875 3.234375,-0.875 c 0.125,0 0.21875,-0.09375 0.21875,-0.21875 0,-0.140625 -0.09375,-0.171875 -0.15625,-0.203125 z m 0,0"
           id="path1524" />
      </symbol>
      <symbol
         overflow="visible"
         id="symbol1477">
        <path
           style="stroke:none"
           d=""
           id="path8372" />
      </symbol>
      <symbol
         overflow="visible"
         id="symbol4521">
        <path
           style="stroke:none"
           d="m 2.265625,-4.359375 c 0,-0.109375 -0.09375,-0.265625 -0.28125,-0.265625 -0.1875,0 -0.390625,0.1875 -0.390625,0.390625 0,0.109375 0.078125,0.265625 0.28125,0.265625 0.1875,0 0.390625,-0.203125 0.390625,-0.390625 z M 0.84375,-0.8125 c -0.03125,0.09375 -0.0625,0.171875 -0.0625,0.296875 0,0.328125 0.265625,0.578125 0.65625,0.578125 0.6875,0 1,-0.953125 1,-1.0625 0,-0.09375 -0.09375,-0.09375 -0.109375,-0.09375 -0.09375,0 -0.109375,0.046875 -0.140625,0.125 -0.15625,0.5625 -0.453125,0.84375 -0.734375,0.84375 -0.140625,0 -0.171875,-0.09375 -0.171875,-0.25 0,-0.15625 0.046875,-0.28125 0.109375,-0.4375 C 1.46875,-1 1.546875,-1.1875 1.609375,-1.375 1.671875,-1.546875 1.9375,-2.171875 1.953125,-2.265625 1.984375,-2.328125 2,-2.40625 2,-2.484375 2,-2.8125 1.71875,-3.078125 1.34375,-3.078125 0.640625,-3.078125 0.328125,-2.125 0.328125,-2 c 0,0.078125 0.09375,0.078125 0.125,0.078125 0.09375,0 0.09375,-0.03125 0.125,-0.109375 C 0.75,-2.625 1.0625,-2.875 1.3125,-2.875 c 0.109375,0 0.171875,0.046875 0.171875,0.234375 0,0.171875 -0.03125,0.265625 -0.203125,0.703125 z m 0,0"
           id="path9417" />
      </symbol>
      <symbol
         overflow="visible"
         id="symbol8373">
        <path
           style="stroke:none"
           d="M 3.0625,-4.359375 C 3.0625,-4.46875 2.96875,-4.625 2.78125,-4.625 c -0.203125,0 -0.390625,0.203125 -0.390625,0.390625 0,0.109375 0.078125,0.265625 0.28125,0.265625 0.1875,0 0.390625,-0.1875 0.390625,-0.390625 z M 1.578125,0.34375 C 1.46875,0.828125 1.09375,1.21875 0.6875,1.21875 c -0.09375,0 -0.171875,0 -0.25,-0.03125 0.171875,-0.09375 0.234375,-0.25 0.234375,-0.359375 0,-0.171875 -0.140625,-0.25 -0.28125,-0.25 C 0.1875,0.578125 0,0.765625 0,0.984375 c 0,0.265625 0.265625,0.4375 0.6875,0.4375 0.421875,0 1.234375,-0.25 1.453125,-1.09375 l 0.625,-2.5 c 0.015625,-0.078125 0.03125,-0.140625 0.03125,-0.25 0,-0.375 -0.328125,-0.65625 -0.734375,-0.65625 -0.78125,0 -1.21875,0.96875 -1.21875,1.078125 0,0.078125 0.09375,0.078125 0.109375,0.078125 0.078125,0 0.09375,-0.015625 0.140625,-0.125 C 1.265625,-2.453125 1.625,-2.875 2.03125,-2.875 c 0.171875,0 0.234375,0.109375 0.234375,0.34375 0,0.078125 0,0.171875 -0.015625,0.203125 z m 0,0"
           id="path5932" />
      </symbol>
      <symbol
         overflow="visible"
         id="symbol2669">
        <path
           style="stroke:none"
           d=""
           id="path2834" />
      </symbol>
      <symbol
         overflow="visible"
         id="symbol1991">
        <path
           style="stroke:none"
           d="m 6.84375,-3.265625 c 0.15625,0 0.34375,0 0.34375,-0.1875 C 7.1875,-3.65625 7,-3.65625 6.859375,-3.65625 h -5.96875 c -0.140625,0 -0.328125,0 -0.328125,0.203125 0,0.1875 0.1875,0.1875 0.328125,0.1875 z m 0.015625,1.9375 c 0.140625,0 0.328125,0 0.328125,-0.203125 0,-0.1875 -0.1875,-0.1875 -0.34375,-0.1875 H 0.890625 c -0.140625,0 -0.328125,0 -0.328125,0.1875 0,0.203125 0.1875,0.203125 0.328125,0.203125 z m 0,0"
           id="path5822" />
      </symbol>
    </g>
  </defs>
  <g
     inkscape:label="Layer 1"
     inkscape:groupmode="layer"
     id="layer1"
     transform="translate(-55.691673,-23.412859)">
    <rect
       style="fill:#ffffff;stroke-width:0.600001"
       id="rect4378"
       width="65.129387"
       height="18.90263"
       x="55.691673"
       y="23.412859" />
    <g
       inkscape:label=""
       transform="translate(-32.493585,-48.108229)"
       id="g4286">
      <g
         id="g4641">
        <g
           style="fill:#000000;fill-opacity:1"
           id="g9204">
          <use
             xlink:href="#symbol750"
             x="91.925003"
             y="81.962997"
             id="use4448"
             width="100%"
             height="100%" />
        </g>
        <g
           style="fill:#000000;fill-opacity:1"
           id="g7241">
          <use
             xlink:href="#symbol6861"
             x="97.961998"
             y="78.348"
             id="use7744"
             width="100%"
             height="100%" />
        </g>
        <g
           style="fill:#000000;fill-opacity:1"
           id="g2038">
          <use
             xlink:href="#symbol4521"
             x="97.603996"
             y="84.556"
             id="use125"
             width="100%"
             height="100%" />
        </g>
        <g
           style="fill:#000000;fill-opacity:1"
           id="g5093">
          <use
             xlink:href="#symbol7215"
             x="102.542"
             y="81.962997"
             id="use5984"
             width="100%"
             height="100%" />
        </g>
        <g
           style="fill:#000000;fill-opacity:1"
           id="g5830">
          <use
             xlink:href="#symbol4521"
             x="107.554"
             y="83.457001"
             id="use9900"
             width="100%"
             height="100%" />
          <use
             xlink:href="#symbol8373"
             x="110.37281"
             y="83.457001"
             id="use3098"
             width="100%"
             height="100%" />
        </g>
        <g
           style="fill:#000000;fill-opacity:1"
           id="g74">
          <use
             xlink:href="#symbol1991"
             x="117.338"
             y="81.962997"
             id="use4407"
             width="100%"
             height="100%" />
        </g>
        <g
           style="fill:#000000;fill-opacity:1"
           id="g5132">
          <use
             xlink:href="#symbol750"
             x="127.854"
             y="81.962997"
             id="use976"
             width="100%"
             height="100%" />
        </g>
        <g
           style="fill:#000000;fill-opacity:1"
           id="g2282">
          <use
             xlink:href="#symbol6861"
             x="133.89101"
             y="78.348"
             id="use893"
             width="100%"
             height="100%" />
        </g>
        <g
           style="fill:#000000;fill-opacity:1"
           id="g9469">
          <use
             xlink:href="#symbol8373"
             x="133.533"
             y="84.556"
             id="use3607"
             width="100%"
             height="100%" />
        </g>
        <g
           style="fill:#000000;fill-opacity:1"
           id="g322">
          <use
             xlink:href="#symbol7215"
             x="138.47099"
             y="81.962997"
             id="use625"
             width="100%"
             height="100%" />
        </g>
        <g
           style="fill:#000000;fill-opacity:1"
           id="g3339">
          <use
             xlink:href="#symbol8373"
             x="143.483"
             y="83.457001"
             id="use6562"
             width="100%"
             height="100%" />
        </g>
        <g
           style="fill:#000000;fill-opacity:1"
           id="g4032">
          <use
             xlink:href="#symbol4521"
             x="147.18399"
             y="83.457001"
             id="use2998"
             width="100%"
             height="100%" />
        </g>
      </g>
    </g>
  </g>
</svg>
